# bantayog.obj (simplified)
mtllib bantayog.mtl
v -3.0000 -3.0000 0.0000
v 3.0000 -3.0000 0.0000
v 3.0000 3.0000 0.0000
v -3.0000 3.0000 0.0000
v -3.0000 -3.0000 0.6000
v 3.0000 -3.0000 0.6000
v 3.0000 3.0000 0.6000
v -3.0000 3.0000 0.6000
v -2.4000 -2.4000 0.6000
v 2.4000 -2.4000 0.6000
v 2.4000 2.4000 0.6000
v -2.4000 2.4000 0.6000
v -2.4000 -2.4000 1.6000
v 2.4000 -2.4000 1.6000
v 2.4000 2.4000 1.6000
v -2.4000 2.4000 1.6000
v 0.0000 1.8000 1.6000
v -1.5588 -0.9000 1.6000
v 1.5588 -0.9000 1.6000
v 0.0000 1.8000 3.6000
v -1.5588 -0.9000 3.6000
v 1.5588 -0.9000 3.6000
v 0.0000 1.2000 3.6000
v -1.0392 -0.6000 3.6000
v 1.0392 -0.6000 3.6000
v 0.0000 1.2000 5.0000
v -1.0392 -0.6000 5.0000
v 1.0392 -0.6000 5.0000
v -0.5000 -0.5000 5.0000
v 0.5000 -0.5000 5.0000
v 0.5000 0.5000 5.0000
v -0.5000 0.5000 5.0000
v 0.0000 0.0000 5.8000
v -0.4000 2.0250 2.3500
v 0.4000 2.0250 2.3500
v 0.4000 2.0750 2.3500
v -0.4000 2.0750 2.3500
v -0.4000 2.0250 2.8500
v 0.4000 2.0250 2.8500
v 0.4000 2.0750 2.8500
v -0.4000 2.0750 2.8500
v 1.6500 -0.0250 2.3500
v 2.4500 -0.0250 2.3500
v 2.4500 0.0250 2.3500
v 1.6500 0.0250 2.3500
v 1.6500 -0.0250 2.8500
v 2.4500 -0.0250 2.8500
v 2.4500 0.0250 2.8500
v 1.6500 0.0250 2.8500
v -2.4500 -0.0250 2.3500
v -1.6500 -0.0250 2.3500
v -1.6500 0.0250 2.3500
v -2.4500 0.0250 2.3500
v -2.4500 -0.0250 2.8500
v -1.6500 -0.0250 2.8500
v -1.6500 0.0250 2.8500
v -2.4500 0.0250 2.8500
v 0.3500 0.0000 5.8000
v 0.3381 0.0906 5.8000
v 0.3031 0.1750 5.8000
v 0.2475 0.2475 5.8000
v 0.1750 0.3031 5.8000
v 0.0906 0.3381 5.8000
v 0.0000 0.3500 5.8000
v -0.0906 0.3381 5.8000
v -0.1750 0.3031 5.8000
v -0.2475 0.2475 5.8000
v -0.3031 0.1750 5.8000
v -0.3381 0.0906 5.8000
v -0.3500 0.0000 5.8000
v -0.3381 -0.0906 5.8000
v -0.3031 -0.1750 5.8000
v -0.2475 -0.2475 5.8000
v -0.1750 -0.3031 5.8000
v -0.0906 -0.3381 5.8000
v -0.0000 -0.3500 5.8000
v 0.0906 -0.3381 5.8000
v 0.1750 -0.3031 5.8000
v 0.2475 -0.2475 5.8000
v 0.3031 -0.1750 5.8000
v 0.3381 -0.0906 5.8000
v 0.3500 0.0000 5.8500
v 0.3381 0.0906 5.8500
v 0.3031 0.1750 5.8500
v 0.2475 0.2475 5.8500
v 0.1750 0.3031 5.8500
v 0.0906 0.3381 5.8500
v 0.0000 0.3500 5.8500
v -0.0906 0.3381 5.8500
v -0.1750 0.3031 5.8500
v -0.2475 0.2475 5.8500
v -0.3031 0.1750 5.8500
v -0.3381 0.0906 5.8500
v -0.3500 0.0000 5.8500
v -0.3381 -0.0906 5.8500
v -0.3031 -0.1750 5.8500
v -0.2475 -0.2475 5.8500
v -0.1750 -0.3031 5.8500
v -0.0906 -0.3381 5.8500
v -0.0000 -0.3500 5.8500
v 0.0906 -0.3381 5.8500
v 0.1750 -0.3031 5.8500
v 0.2475 -0.2475 5.8500
v 0.3031 -0.1750 5.8500
v 0.3381 -0.0906 5.8500
usemtl stone
f 1 2 3
f 1 3 4
f 5 6 7
f 5 7 8
f 1 2 6
f 1 6 5
f 2 3 7
f 2 7 6
f 3 4 8
f 3 8 7
f 4 1 5
f 4 5 8
f 9 10 11
f 9 11 12
f 13 14 15
f 13 15 16
f 9 10 14
f 9 14 13
f 10 11 15
f 10 15 14
f 11 12 16
f 11 16 15
f 12 9 13
f 12 13 16
f 17 18 19
f 20 21 22
f 17 18 21
f 17 21 20
f 18 19 22
f 18 22 21
f 19 17 20
f 19 20 22
f 23 24 25
f 26 27 28
f 23 24 27
f 23 27 26
f 24 25 28
f 24 28 27
f 25 23 26
f 25 26 28
f 29 30 33
f 30 31 33
f 31 32 33
f 32 29 33
f 29 30 31
f 29 31 32
usemtl gold
f 34 35 36
f 34 36 37
f 38 39 40
f 38 40 41
f 34 35 39
f 34 39 38
f 35 36 40
f 35 40 39
f 36 37 41
f 36 41 40
f 37 34 38
f 37 38 41
f 42 43 44
f 42 44 45
f 46 47 48
f 46 48 49
f 42 43 47
f 42 47 46
f 43 44 48
f 43 48 47
f 44 45 49
f 44 49 48
f 45 42 46
f 45 46 49
f 50 51 52
f 50 52 53
f 54 55 56
f 54 56 57
f 50 51 55
f 50 55 54
f 51 52 56
f 51 56 55
f 52 53 57
f 52 57 56
f 53 50 54
f 53 54 57
f 58 59 83
f 58 83 82
f 59 60 84
f 59 84 83
f 60 61 85
f 60 85 84
f 61 62 86
f 61 86 85
f 62 63 87
f 62 87 86
f 63 64 88
f 63 88 87
f 64 65 89
f 64 89 88
f 65 66 90
f 65 90 89
f 66 67 91
f 66 91 90
f 67 68 92
f 67 92 91
f 68 69 93
f 68 93 92
f 69 70 94
f 69 94 93
f 70 71 95
f 70 95 94
f 71 72 96
f 71 96 95
f 72 73 97
f 72 97 96
f 73 74 98
f 73 98 97
f 74 75 99
f 74 99 98
f 75 76 100
f 75 100 99
f 76 77 101
f 76 101 100
f 77 78 102
f 77 102 101
f 78 79 103
f 78 103 102
f 79 80 104
f 79 104 103
f 80 81 105
f 80 105 104
f 81 58 82
f 81 82 105
f 58 59 60
f 82 83 84
f 58 60 61
f 82 84 85
f 58 61 62
f 82 85 86
f 58 62 63
f 82 86 87
f 58 63 64
f 82 87 88
f 58 64 65
f 82 88 89
f 58 65 66
f 82 89 90
f 58 66 67
f 82 90 91
f 58 67 68
f 82 91 92
f 58 68 69
f 82 92 93
f 58 69 70
f 82 93 94
f 58 70 71
f 82 94 95
f 58 71 72
f 82 95 96
f 58 72 73
f 82 96 97
f 58 73 74
f 82 97 98
f 58 74 75
f 82 98 99
f 58 75 76
f 82 99 100
f 58 76 77
f 82 100 101
f 58 77 78
f 82 101 102
f 58 78 79
f 82 102 103
f 58 79 80
f 82 103 104
f 58 80 81
f 82 104 105
