<svg xmlns="http://www.w3.org/2000/svg" viewBox="0 0 40.432 45"><defs><style>            .cls-1{fill:#84b9d9;fill-rule:evenodd}        </style></defs><g id="Symbol_43_1" data-name="Symbol 43 &#x2013; 1" transform="translate(-113 -711.001)"><path id="Path_848" d="M110.689 34.291a5.832 5.832 0 0 1-.66-.172c-.151-.044-.3-.1-.451-.141a7.276 7.276 0 0 1-1.069-.411 7.676 7.676 0 0 1-1.17-.651 6.4 6.4 0 0 1-.887-.691c-.177-.178-.359-.351-.531-.534-.132-.139-.247-.293-.367-.443-.093-.117-.174-.24-.259-.36-.152-.216-.3-.437-.44-.659-.154-.238-.3-.479-.455-.72-.128-.2-.253-.412-.382-.616-.089-.141-.184-.279-.286-.433-.134.056-.239.091-.336.141a5.433 5.433 0 0 1-.61.238 5.25 5.25 0 0 1-.762.244 3.443 3.443 0 0 1-.487.113c-.054 0-.1.035-.159.041s-.145-.022-.2.006c-.119.065-.246.01-.359.044a1.109 1.109 0 0 1-.382.038 2.973 2.973 0 0 1-.8-.043 1.451 1.451 0 0 1-.468-.054 2.669 2.669 0 0 1-.3-.061c-.169-.039-.326-.111-.493-.149a3.385 3.385 0 0 1-.811-.338 5.783 5.783 0 0 1-.8-.5 9.848 9.848 0 0 1-.841-.686 4.288 4.288 0 0 1-.554-.587 5.811 5.811 0 0 0-.388-.439c-.019-.021-.03-.047-.048-.068-.1-.122-.169-.278-.316-.365a2.64 2.64 0 0 0-.21.252 5 5 0 0 1-.522.645c-.244.267-.507.516-.765.769a2.2 2.2 0 0 1-.327.28c-.262.17-.506.367-.777.526a9.347 9.347 0 0 1-.942.456 4.309 4.309 0 0 1-.589.18 6.148 6.148 0 0 1-.61.129 4.492 4.492 0 0 1-.623.048c-.192.007-.384 0-.576 0-.044 0-.1.019-.13 0-.087-.068-.182-.028-.272-.041s-.179-.031-.269-.044a1.418 1.418 0 0 1-.355-.052c-.186-.08-.387-.092-.576-.16s-.379-.11-.566-.183c-.26-.1-.526-.192-.778-.314a.241.241 0 0 0-.214-.034c-.019.034-.034.065-.053.094-.187.291-.378.581-.563.874-.14.222-.273.448-.408.673a1.664 1.664 0 0 1-.127.212c-.143.173-.241.375-.375.554a11.034 11.034 0 0 1-.738.911 5.477 5.477 0 0 1-.57.54c-.2.165-.407.331-.622.481a9.66 9.66 0 0 1-.92.56 6.051 6.051 0 0 1-.635.283c-.184.073-.367.148-.553.217-.226.084-.459.14-.685.217-.275.094-.559.148-.838.225-.11.03-.247.019-.35.139a1.735 1.735 0 0 1 .227.174c.28.3.591.565.853.884.208.252.4.513.59.776a3.866 3.866 0 0 1 .366.646c.1.208.192.421.269.642.1.273.172.549.244.828.044.17.056.349.1.515.063.246.063.5.118.746.035.158.011.326.043.491a2.163 2.163 0 0 1 .005.508c-.007.167.041.328.043.491.008.687 0 1.373 0 2.059v2.082c0 .686-.009 1.373 0 2.059s-.019 1.375.032 2.064c.045.6.01 1.21.01 1.815v1.818c0 .605-.008 1.211 0 1.816a13.7 13.7 0 0 0 .041 1.8 2.806 2.806 0 0 0 .051.423c.057.179.061.367.124.546.069.194.1.4.162.6a4.668 4.668 0 0 0 .153.446c.079.2.162.391.254.581.116.24.232.482.367.711a6.6 6.6 0 0 0 .514.782 6.4 6.4 0 0 0 .7.8 6.971 6.971 0 0 0 .533.481c.219.159.435.324.671.461a4.561 4.561 0 0 0 .616.332 6.589 6.589 0 0 0 .851.3 5.73 5.73 0 0 1 .6.149l.313.044c.1.032.207.008.314.045s.22 0 .336.042a1.953 1.953 0 0 0 .334.046c.2.031.405.049.605.093a1.165 1.165 0 0 1 .25.04c.079.034.185-.016.267.051a3.226 3.226 0 0 1 .583.091 1.324 1.324 0 0 1 .287.054c.224.076.462.089.684.164.059.02.12.03.18.045l.181.044c.193.05.379.123.571.171.294.074.574.184.861.277.129.042.243.128.373.168a2.625 2.625 0 0 1 .372.172c.129.063.257.128.383.2a4.265 4.265 0 0 1 .448.3 1.527 1.527 0 0 1 .542.655h.233c.013-.013.028-.022.034-.035a2.232 2.232 0 0 1 .568-.648 1.9 1.9 0 0 1 .348-.223 2.446 2.446 0 0 1 .37-.229c.127-.052.253-.108.373-.168.344-.172.719-.261 1.067-.42a.564.564 0 0 1 .137-.044c.259-.043.5-.152.757-.2.164-.031.318-.1.486-.114a4.293 4.293 0 0 0 .485-.108c.155-.035.311-.063.465-.105.079-.022.164-.015.248-.043s.178-.023.269-.044c.266-.059.542-.067.808-.137.076-.02.169.011.235-.022a.386.386 0 0 1 .211-.021.811.811 0 0 0 .226-.046c.1-.023.207.012.317-.037a1.428 1.428 0 0 1 .334-.045c.221-.035.436-.086.653-.136a5.146 5.146 0 0 0 .951-.326 6.762 6.762 0 0 0 .637-.337 8.077 8.077 0 0 0 .852-.612 1.873 1.873 0 0 0 .158-.155.727.727 0 0 1 .176-.163c.075-.033.081-.1.132-.15a4.5 4.5 0 0 0 .584-.663 8.033 8.033 0 0 0 .605-.925 9.332 9.332 0 0 0 .628-1.422 10.41 10.41 0 0 0 .28-1.013c.011-.046.036-.09.042-.137s-.02-.131.006-.174a.49.49 0 0 0 .04-.228 2.359 2.359 0 0 0 .042-.248v-1.35c0-.45 0-.888.032-1.333.041-.632.011-1.269.011-1.9v-1.9c0-.642-.007-1.284 0-1.926a15.167 15.167 0 0 1 .043-1.886v-4.556-.664a3.932 3.932 0 0 1 .036-.67c.041-.217-.011-.445.047-.668.033-.128.016-.267.037-.4s.045-.266.06-.4.064-.26.076-.385a3.438 3.438 0 0 1 .158-.647 6.076 6.076 0 0 1 .7-1.526 5.521 5.521 0 0 1 .8-1.042.338.338 0 0 0 .077-.079 1.323 1.323 0 0 1 .382-.414c.163-.137.311-.286.48-.441-.188-.052-.351-.112-.519-.141zm-.558.822c-.182.218-.374.426-.544.656s-.343.5-.5.748a4.945 4.945 0 0 0-.368.776c-.093.227-.155.467-.233.7-.055.164-.09.333-.129.5-.045.2-.056.4-.121.591a.149.149 0 0 0-.008.041 4.963 4.963 0 0 1-.049.579c-.044.223 0 .452-.048.667a3.583 3.583 0 0 0-.033.714c-.006.848 0 1.7 0 2.546v.045c0 .516-.011 1.033 0 1.549.025 1.027-.062 2.052-.049 3.08s0 2.066 0 3.1v3.1a8.842 8.842 0 0 0-.044 1.354c0 .056-.019.119.042.157a.847.847 0 0 0-.04.161 1.5 1.5 0 0 0 0 .309 2.222 2.222 0 0 1-.05.424 1.083 1.083 0 0 1-.081.386c-.028.064.024.144-.032.208s.022.15-.061.2a2.48 2.48 0 0 1-.195.672 6.2 6.2 0 0 1-.471 1.11 11.164 11.164 0 0 1-.629 1.025 8.4 8.4 0 0 1-.929 1.052c-.126.126-.289.212-.412.334a4.424 4.424 0 0 1-.747.5 4.217 4.217 0 0 1-.7.327c-.26.109-.535.168-.8.254a2.41 2.41 0 0 1-.354.055c-.076.012-.15.03-.225.044s-.162-.035-.226.044c-.006.007-.029 0-.043 0a3.926 3.926 0 0 0-.556.049 5.478 5.478 0 0 0-.7.125.9.9 0 0 1-.2 0 1.4 1.4 0 0 1-.159.04c-.214 0-.411.112-.627.091a4.67 4.67 0 0 1-.683.163c-.205.053-.418.1-.627.146s-.4.1-.6.157c-.3.081-.586.189-.879.284-.182.06-.354.143-.534.208a2.949 2.949 0 0 0-.521.237 5.908 5.908 0 0 0-.842.538 1.535 1.535 0 0 0-.354.361 1.263 1.263 0 0 1-.113.139l-.027-.064c-.091-.084-.185-.164-.272-.251a3.485 3.485 0 0 0-.673-.509 9.534 9.534 0 0 0-.84-.434c-.376-.181-.78-.289-1.166-.445a2.514 2.514 0 0 1-.584-.143c-.184-.045-.369-.109-.555-.15s-.356-.075-.531-.114a3.322 3.322 0 0 1-.547-.12 1.57 1.57 0 0 0-.356-.051c-.068-.01-.135-.03-.2-.043a.533.533 0 0 1-.186-.034c-.081-.044-.2.019-.286-.055-.153.034-.294-.05-.446-.047a1.6 1.6 0 0 1-.248-.04c-.076-.011-.159.022-.227-.044-.011-.011-.043-.005-.064 0a1.506 1.506 0 0 1-.4-.047 2.155 2.155 0 0 1-.38-.045c-.2-.046-.393-.084-.586-.135a2.921 2.921 0 0 1-.543-.181 7.607 7.607 0 0 1-1.1-.6 4.433 4.433 0 0 1-.7-.563c-.087-.093-.2-.16-.291-.254a9.04 9.04 0 0 1-.5-.589 5.423 5.423 0 0 1-.421-.6 7.783 7.783 0 0 1-.488-.882 9.413 9.413 0 0 1-.449-1.163c-.058-.212-.123-.424-.164-.644a2.834 2.834 0 0 0-.123-.589 2.921 2.921 0 0 0-.046-.535v-6.462a18.513 18.513 0 0 1-.043-2.062c-.008-.686 0-1.372 0-2.058v-2.074-2.347a1.614 1.614 0 0 0-.021-.391 1.731 1.731 0 0 1-.021-.366 2.285 2.285 0 0 0-.008-.4c-.039-.165-.01-.334-.044-.491-.054-.246-.055-.5-.118-.746-.042-.166-.055-.344-.1-.514a7.327 7.327 0 0 0-.294-.963 8.354 8.354 0 0 0-.364-.8 7.024 7.024 0 0 0-.452-.721c-.2-.284-.435-.53-.655-.793-.155-.185-.335-.342-.5-.537.258-.047.505-.128.757-.193s.5-.172.755-.261c.1-.037.2-.077.308-.112s.186-.084.284-.118a5.692 5.692 0 0 0 .551-.273 6.279 6.279 0 0 0 .958-.571 4.868 4.868 0 0 0 .827-.682c.144-.158.307-.3.451-.456.188-.2.353-.426.524-.644.225-.287.41-.6.618-.9.149-.215.271-.448.41-.671.154-.247.312-.491.469-.736.034-.053.07-.1.1-.156.233.1.457.193.687.28.166.062.339.109.508.164s.37.106.557.151a3.947 3.947 0 0 0 .572.115c.09.009.179.033.27.042s.185-.015.271.043c.025.017.072 0 .109 0 .185 0 .37-.012.554 0a3.551 3.551 0 0 0 .733-.056 2.268 2.268 0 0 0 .7-.165 1.382 1.382 0 0 0 .536-.149 8.652 8.652 0 0 0 1-.477 3.948 3.948 0 0 0 .64-.435c.181-.151.36-.306.545-.451a4.959 4.959 0 0 0 .66-.638 4.329 4.329 0 0 0 .524-.643.825.825 0 0 1 .129-.131.388.388 0 0 0 .043.083c.208.24.41.483.627.714s.437.462.674.672a6.877 6.877 0 0 0 .927.7 6.579 6.579 0 0 0 .792.44 5.209 5.209 0 0 0 .866.316 3.1 3.1 0 0 0 .675.133c.13.08.284.013.417.062a1.463 1.463 0 0 0 .454.026c.147.007.295 0 .443 0a1.047 1.047 0 0 0 .336-.042c.1-.03.218.034.313-.047a1.812 1.812 0 0 0 .6-.095 4.513 4.513 0 0 0 .676-.181c.247-.078.492-.164.735-.257.134-.051.259-.122.4-.188.235.389.48.762.708 1.147.194.327.395.652.615.961.155.218.309.44.487.644a8.015 8.015 0 0 0 .744.817c.208.181.42.359.64.529.311.24.661.416.974.649.217.065.4.208.615.281a5.032 5.032 0 0 1 .548.226c.269.125.555.192.83.293.237.088.484.152.727.223a.759.759 0 0 0 .164 0c-.191.207-.382.374-.543.567zm3.448 25.838h-.041.041a1.215 1.215 0 0 1 .159 0 1.211 1.211 0 0 0-.159-.001zm-.123 0a.867.867 0 0 1-.123-.018.722.722 0 0 0 .123.022zm-.514-.166l.053.024c.03.013.059.027.089.039l-.089-.039zm-.531-.1l.031-.019zm-1.568-1.351c.2.162.411.323.616.485l.058.047-.058-.047c-.204-.161-.411-.319-.616-.483zm.05 1.444c.039.031.077.063.114.1.122.108.241.22.362.328-.121-.109-.24-.221-.362-.329a1.464 1.464 0 0 0-.114-.097zm-.152-1.545l.014.014-.014-.014zm-.245-.529a.276.276 0 0 0-.012.1.291.291 0 0 1 .012-.1zm-.367 1.43a.084.084 0 0 0 .026.019.084.084 0 0 1-.026-.016zm-.193-.179a.38.38 0 0 0 .053.015.121.121 0 0 1 .035.012.108.108 0 0 0-.035-.013.377.377 0 0 1-.052-.012zm-.168-.075l.03.013zm-.058.045a.367.367 0 0 0-.1.019.387.387 0 0 1 .1-.019h.009-.009zm-.1.019a.309.309 0 0 0-.058.025.4.4 0 0 1 .058-.023zm-.852 1c.053.007.1.017.153.026l-.153-.031zm0-.006a.218.218 0 0 1-.03-.024l.031.031v-.006zm-.065-.13l-.009.016zm.011.09a.066.066 0 0 1-.021-.009.06.06 0 0 0 .017.011zm-2.558-20.28l.2.1-.2-.1zm-.721-.374l.112.061.143.076-.143-.077zm-2.125.483c.012-.087.019-.167.028-.241-.01.074-.016.154-.029.242zm-.083-2.046l-.1-.1.1.1.086.082-.086-.083zm-7.157-4.933a.96.96 0 0 1-.13-.057.845.845 0 0 0 .13.057zm-2.893-.2a1.663 1.663 0 0 1 0 .2l.009.009a1.484 1.484 0 0 0-.005-.207zm0 0a.324.324 0 0 1 0-.036.266.266 0 0 0 0 .039zm-.011.234zm-.029 0l.014.014-.013-.014zm-.778-2.7c.15.141.3.282.448.426l.075.073-.072-.081-.45-.42zm-5.81 7.148c.026-.022.05-.046.074-.07l.036-.036-.036.035a1.647 1.647 0 0 1-.074.07zm-.849 2.33l.177.1.013.007-.013-.008c-.058-.032-.117-.067-.177-.099zm-1.114-.583l.04.021a3.597 3.597 0 0 0 0-.001.353.353 0 0 0-.04-.02zm-.039-.014a.181.181 0 0 0-.039-.009.275.275 0 0 1 .039.009zm-1.572.726l.028-.01-.028.009zM100.564 59l.044.045zm.4.487zm.708-4.075a.475.475 0 0 1 .1-.049.448.448 0 0 0-.1.05zm.709 4.739l.139-.133zm.524-5.36l.063-.016zm.273 2.791a.115.115 0 0 0 .03-.02.121.121 0 0 1-.031.021zm0-3.745l.124-.071zm.142 3.558zm.65-.078l-.014.021.014-.021zm4.13-12.091c-.013-.516 0-1.033 0-1.549h-6.555c.034.16-.056.308-.046.468a2.287 2.287 0 0 1 0 .464c-.034.231-.048.466-.093.693a1.389 1.389 0 0 1-.122.522 2.4 2.4 0 0 1-.136.63c-.059.211-.122.42-.194.628-.053.154-.133.3-.184.455a7.876 7.876 0 0 1-.347.741 5.517 5.517 0 0 1-.57.956 3.944 3.944 0 0 1-.666.809c-.07.057-.094.147-.179.2a1.03 1.03 0 0 0-.192.18c-.068.067-.132.14-.2.2-.162.138-.324.279-.5.405a5.451 5.451 0 0 1-.5.328c-.177.1-.361.194-.547.282-.16.076-.327.136-.492.2s-.338.114-.507.161a2.08 2.08 0 0 0-.323.079c-.1.045-.218-.023-.306.062h-.022a7.426 7.426 0 0 1-.778.044V65.6c0 .013.01.025.027.064a1.253 1.253 0 0 0 .113-.139 1.536 1.536 0 0 1 .354-.361 5.9 5.9 0 0 1 .842-.538 2.949 2.949 0 0 1 .521-.237c.18-.064.352-.148.534-.208.293-.095.581-.2.879-.284.2-.054.4-.11.6-.157s.422-.093.627-.146a4.672 4.672 0 0 0 .683-.163c.216.021.412-.092.627-.091a1.394 1.394 0 0 0 .159-.04.9.9 0 0 0 .2 0 5.484 5.484 0 0 1 .7-.125 3.928 3.928 0 0 1 .556-.049c.014 0 .037.006.043 0 .064-.078.151-.03.226-.044s.15-.031.225-.044a2.413 2.413 0 0 0 .354-.055c.267-.087.542-.145.8-.254a4.223 4.223 0 0 0 .7-.327 4.429 4.429 0 0 0 .747-.5c.123-.122.286-.208.412-.334a8.4 8.4 0 0 0 .929-1.052 11.185 11.185 0 0 0 .629-1.025 6.205 6.205 0 0 0 .471-1.11 2.478 2.478 0 0 0 .195-.672c.083-.046.013-.141.061-.2s0-.144.032-.208a1.083 1.083 0 0 0 .081-.386 2.217 2.217 0 0 0 .05-.424 1.5 1.5 0 0 1 0-.309.845.845 0 0 1 .04-.161c-.061-.038-.044-.1-.042-.157a8.846 8.846 0 0 1 .044-1.354V51.4c0-1.033.01-2.066 0-3.1s.061-2.047.04-3.074zM105 55.768c-.055.089-.138.019-.2.049-.03-.081-.08-.145-.064-.227h-.343a.049.049 0 0 1-.028-.015l-.014-.014-.013-.013c-.066 0-.038-.055-.044-.088h-.031V55.439a.275.275 0 0 1 0-.031v-.048a.063.063 0 0 0-.015-.035h-.156v.013a.052.052 0 0 1-.007.019l-.007.007H104.052a.291.291 0 0 0-.047 0 .111.111 0 0 0 0 .03.079.079 0 0 1 0 .025v.02a.038.038 0 0 1-.024.012h-.013v.249c0 .07.068.126.044.2.067 0 .038.055.044.088.066 0 .038.055.045.088l.02.019.024.026.021.024.017.022a.356.356 0 0 1 .021.031.3.3 0 0 1 .016.028.465.465 0 0 1 .036.087.287.287 0 0 1 .008.029c0 .012.006.024.008.037s0 .034.006.052c.093.009.045.094.061.136a.7.7 0 0 1-.039.526.038.038 0 0 1-.011.014l-.017.012-.029.016h-.009l-.044.044-.044.044-.044.044a.079.079 0 0 1 0 .022.033.033 0 0 1-.014.014h-.011a.1.1 0 0 1-.029 0 .109.109 0 0 0-.03 0l-.014.021-.039.058h-.6a.093.093 0 0 1-.022-.022v-.006l-.005-.006a.161.161 0 0 0-.014.028.247.247 0 0 0-.009.029.862.862 0 0 1-.023.094.175.175 0 0 1-.013.027.1.1 0 0 1-.021.024.113.113 0 0 1-.03.02c-.006.034.022.085-.044.088v.013a.194.194 0 0 1 0 .05V57.734l-.006.005h-.031l-.044.044c-.007.034.022.085-.044.088l-.045.044v.751h.354l.044.136v.044l.045.055-.044.034c-.011.03.012.072 0 .1v.008l-.008.009-.008.006h-.024a.21.21 0 0 1-.066.171c-.047.063-.1.125-.149.184s-.106.118-.162.174l-.136.135-.278.266-.139.133-.044.044-.045.044a.3.3 0 0 0 0 .048v.02l-.006.009-.008.005a.072.072 0 0 1-.019.005h-.008l-.044.044v.044c-.007.034.022.085-.044.088l-.01.014-.01.015-.006.008a.012.012 0 0 1-.007 0 1.272 1.272 0 0 0-.149 0 .343.343 0 0 1-.21-.042c-.031-.02-.087 0-.13 0-.089-.01-.177-.023-.279-.037v-.01a2.112 2.112 0 0 0 0-.231v.011-.043l.005-.021a.127.127 0 0 1 .006-.02l.009-.02a.184.184 0 0 1 .016-.028.265.265 0 0 1 .047-.052l.045-.044.056-.086h.365v-.017l.114-.031v-.032l.005-.006c.019-.015.051 0 .075-.008l.045-.044.044-.044c0-.038.02-.045.042-.045a.275.275 0 0 0 .047 0l.045-.044.044-.044.044-.044.044-.044c0-.024-.008-.057.007-.075l.006-.005h.031v-.31a.089.089 0 0 1-.023 0 .024.024 0 0 1-.013-.01c-.015-.018 0-.051-.007-.074h-.088v-.088a.708.708 0 0 1-.083 0l-.06-.008-.059-.011-.058-.014-.117-.03-.029-.007q-.044-.011-.088-.019c-.032-.006-.056-.055-.084-.085h-.047a.055.055 0 0 1-.021 0h-.006a.052.052 0 0 1-.013-.037l-.045-.044-.044-.044h-.221l-.044.044-.044.044-.044.044-.033.12.033.057a.277.277 0 0 0 .047 0h.015a.03.03 0 0 1 .013.006.03.03 0 0 1 .009.014.081.081 0 0 1 0 .023l.044.044.081.054a.274.274 0 0 1 .005.035.269.269 0 0 1 0 .065.21.21 0 0 1-.014.06c0 .01-.007.019-.012.029a.387.387 0 0 1-.035.055.453.453 0 0 1-.048.055h-.111v.013a.043.043 0 0 1-.007.018l-.005.006h-.006a.146.146 0 0 1-.055 0h-.013a.048.048 0 0 1-.014.037h-.045a.115.115 0 0 0-.03 0c0 .038-.02.045-.042.045a.287.287 0 0 0-.047 0h-.044c0 .066-.055.037-.088.044 0 .066-.055.038-.089.044a.051.051 0 0 1-.013.037h-.124a.079.079 0 0 1 0 .022.032.032 0 0 1-.014.014h-.011a.1.1 0 0 1-.029 0 .112.112 0 0 0-.029 0l-.044.044-.044.044-.044.044v.088h-.089c-.014.056-.047.05-.082.044a.1.1 0 0 0-.051 0v.005a.18.18 0 0 1-.019.028h-.009a1.465 1.465 0 0 1-.485-.055.037.037 0 0 1-.013-.006l-.006-.006-.009-.01-.02-.023-.009-.01v-.006a.082.082 0 0 0 0-.019v-.009a.557.557 0 0 0-.006-.057.167.167 0 0 1 0-.023v-.038a.085.085 0 0 1 .027-.035l.013-.01c.006-.034-.021-.085.044-.088l.045-.044.013-.013.007-.007.009-.009.008-.007h.006a.023.023 0 0 1 .011 0h.256l.044-.044a.1.1 0 0 1 .088-.087h.03a.546.546 0 0 1 .06 0v-.013a.043.043 0 0 1 .007-.018l.005-.006c.015-.014.041-.006.062-.006h.013l.044-.044v-.026a.1.1 0 0 1 .018-.028.052.052 0 0 1 .011-.011.057.057 0 0 1 .015-.01l.014-.006a.153.153 0 0 1 .033-.007h.02a.512.512 0 0 1 .058 0 5.178 5.178 0 0 1-.044-.133l-.039-.034h-.056l-.043-.006-.022-.005a.263.263 0 0 1-.042-.015l-.02-.011-.019-.013-.017-.015-.013-.014a.215.215 0 0 1-.023-.034l-.01-.019-.044-.044H100.186a.1.1 0 0 1-.038-.01l-.011-.006a.093.093 0 0 1-.016-.013.082.082 0 0 1-.013-.017.187.187 0 0 1-.014-.026l-.006-.016-.006-.017a.485.485 0 0 1 .024-.153c.036-.089 0-.211.109-.268 0-.021-.006-.05 0-.069v-.006a.038.038 0 0 1 .013-.009.067.067 0 0 1 .023 0v-.013c0-.021-.007-.047.006-.062a.05.05 0 0 1 .037-.014c.006-.034-.022-.085.044-.088a.11.11 0 0 1 .089-.133l.044-.044.044-.044.044-.044.044-.044.045-.044a.147.147 0 0 1 .016-.041l.011-.015a.1.1 0 0 1 .063-.032.156.156 0 0 1 .042 0l.04-.028.041-.028.086-.06v-.022a.24.24 0 0 0-.011-.058.126.126 0 0 0-.008-.021l-.007-.015-.007-.011-.01-.013-.012-.012-.014-.01a.112.112 0 0 0-.031-.016.193.193 0 0 0-.039-.01.281.281 0 0 0-.044 0h-.01a.352.352 0 0 1-.047 0 .641.641 0 0 1-.071-.01c-.035-.007-.069-.015-.1-.024s-.046-.011-.069-.014a.019.019 0 0 1-.01-.006l-.006-.007-.019-.029h-.045c-.044-.017-.112.041-.133-.044l-.044-.044a.1.1 0 0 0-.028 0 .061.061 0 0 1-.044-.007.048.048 0 0 1-.014-.037l-.044-.044-.044-.044c-.034-.007-.085.022-.089-.044l-.044-.044h-.088v-.088l-.045-.044-.044-.044-.044-.044-.044-.044-.044-.044-.045-.044a.5.5 0 0 1-.064-.055.512.512 0 0 1-.034-.042.186.186 0 0 1-.014-.022.461.461 0 0 1-.024-.046.527.527 0 0 1-.04-.233.35.35 0 0 1-.089-.266.577.577 0 0 1-.061 0 .24.24 0 0 1-.076-.016l-.013-.006a.187.187 0 0 1-.022-.013l-.021-.018a.193.193 0 0 1-.028-.036h-.266a.051.051 0 0 1-.014.037.036.036 0 0 1-.012.006h-.062a.206.206 0 0 1-.017.023l-.01.01-.011.009a.176.176 0 0 1-.078.035h-.485l-.032-.026-.136-.112-.107-.088v-.213l.085-.056.044-.044.038-.045.044-.044a.065.065 0 0 1 0-.025v-.005a.029.029 0 0 1 .02-.011.389.389 0 0 0 .048 0l.023-.008.024-.01.027-.013.031-.015.127.093h1l.066-.177v-.133h-.103l-.014-.005-.012-.006a.07.07 0 0 1-.015-.012l-.008-.008v-.007a.142.142 0 0 1-.019-.044c-.034-.006-.085.022-.088-.044l-.045-.044-.044-.044a.108.108 0 0 0-.03 0 .077.077 0 0 1-.039 0h-.006a.048.048 0 0 1-.014-.037l-.089-.088h-.013a.045.045 0 0 1-.018-.007l-.006-.005c-.015-.019 0-.051-.008-.075l-.044-.044-.044-.044-.051-.063-.044-.044-.015-.005-.03-.013-.031-.013a.154.154 0 0 0-.03-.009h-.02a.367.367 0 0 1-.083 0 .437.437 0 0 1-.069-.011l-.034-.009c-.052-.013-.1-.029-.155-.038-.007 0-.01-.023-.015-.035-.034-.007-.085.022-.088-.044l-.044-.045-.047-.007a.164.164 0 0 1-.035-.013l-.011-.007-.01-.009-.007-.01-.007-.014a.091.091 0 0 1-.006-.019V54.001a.062.062 0 0 1-.024 0h-.007l-.005-.005V53.983a.262.262 0 0 1 0-.035v-.05l-.012-.083-.006-.039-.008-.059c.042-.023 0-.121.074-.162l.044-.044.078-.106.062.046.056.042.026.019c.034.007.085-.022.089.045l.011.011.011.011.022.022a.2.2 0 0 1 .142.026l.01.01.008.013.005.011a.128.128 0 0 1 .01.026.129.129 0 0 0 .029 0c.029 0 .057 0 .06.044h.013c.022 0 .047-.007.062.006a.031.031 0 0 1 .009.013.085.085 0 0 1 0 .023l.044.044c.034.007.085-.022.089.044a.593.593 0 0 1 .061 0h.016a.118.118 0 0 1 .053.017l.012.009.01.01a.127.127 0 0 1 .025.053h.013c.022 0 .047-.008.062.006a.049.049 0 0 1 .014.037l.044.044c.034.007.085-.022.089.044l.093.017.094.015a1.134 1.134 0 0 0 .213.015h.028c.137-.008.276 0 .415 0a1.231 1.231 0 0 0 .23-.026h.028a.964.964 0 0 1 .1-.014.7.7 0 0 1 .157 0l.1.007h.406l-.041-.195-.013-.061H101.007a.291.291 0 0 1-.2.043.875.875 0 0 1-.129-.027.09.09 0 0 1 0-.021h-.013c-.024 0-.052.008-.067-.012a.063.063 0 0 1-.009-.031l-.083-.056v-.184l.236-.115h.194v-.214h-.367l-.011-.017-.018-.033a.233.233 0 0 1-.014-.033.465.465 0 0 1-.018-.067.887.887 0 0 1-.008-.192.861.861 0 0 0-.005-.174l.13-.067a4.778 4.778 0 0 0 1.058-.06l.058-.042.044-.032V52.4h.088l.007-.011.008-.011a.2.2 0 0 1 .152-.068 1.077 1.077 0 0 1 .46.092c.033.013.054.056.081.086h.013c.022 0 .047-.007.061.006a.049.049 0 0 1 .014.037c.066 0 .143-.02.17.077-.024.045-.116-.035-.126.056.077 0 .156-.014.221.044l.03-.037.014.037h.064a.322.322 0 0 1 .069.266.05.05 0 0 1 .037.014c.014.014.006.04.006.062v.012h.133v.089l.02.017a.061.061 0 0 1 0 .1l-.02.017a.108.108 0 0 1-.046.068l-.018.011-.015.006a.424.424 0 0 1-.054.014v.122l.044.044.128.061v.153l-.124.071.04.07.044.044c.078.027.05.081.027.127a.708.708 0 0 1-.071.095l.044.044.112.081-.112.1-.044.044v.088h-.089c0 .039-.02.045-.042.045a.273.273 0 0 0-.046 0 .14.14 0 0 1-.051.073l-.008.009-.008.008-.014.018a.08.08 0 0 0 0 .1l-.063.016-.062.017-.04.011-.156.042v.021h.125a.1.1 0 0 1-.02.1.113.113 0 0 1-.027.019l-.034.013a.169.169 0 0 1-.016.022.175.175 0 0 1-.108.062h-.275l-.044.044-.044.044-.044.045c-.024.068-.068.055-.109.035l-.018-.009h-.007a.181.181 0 0 1-.03-.02l-.023-.019-.035-.028-.044.044-.045.044a.112.112 0 0 1-.029.053.132.132 0 0 1-.034.024l-.013.007a.472.472 0 0 0-.1.049 1.091 1.091 0 0 1-.03.139.96.96 0 0 1-.04.1l-.023.05a1.089 1.089 0 0 0-.054.13l-.006.019c-.015.05-.04.092-.006.133l.008.01.006.011v.009c.021.051 0 .1.009.154.066 0 .037.055.044.089l.044.044.044.044.045.044c.034.007.085-.022.088.044l.029.03.015.014a.337.337 0 0 1 .046 0 .871.871 0 0 1 .092.019l.042.009.043.009h.021a.465.465 0 0 0 .136 0 2.6 2.6 0 0 1 .391 0c.019 0 .037.028.055.043h.044c.082.009.186-.038.221.088.024 0 .057-.008.075.008l.005.006v.031h.088v.089c.066 0 .038.054.044.088l.022.015.068.045v.145l.069.028.068.028.045.017.023.008.045.013.024.005a.462.462 0 0 0 .119.01h.062c.029-.01.056-.025.085-.034l.021-.005a.12.12 0 0 1 .055 0c0-.038.02-.045.041-.045a.276.276 0 0 0 .047 0l.044-.044c.015-.089.035-.178.043-.268s0-.176 0-.263h-.024a.05.05 0 0 1-.015-.012c-.025-.03.008-.079-.006-.112-.066 0-.037-.055-.044-.088l-.044-.044a.082.082 0 0 1-.023 0 .03.03 0 0 1-.018-.015v-.045a.229.229 0 0 0 0-.043c-.067 0-.038-.055-.044-.088h-.026a.03.03 0 0 1-.011-.008c-.015-.019 0-.051-.007-.074l-.02-.006h-.017l-.013-.009a.082.082 0 0 1-.021-.024.106.106 0 0 1-.015-.04.263.263 0 0 1 0-.042v-.092a.137.137 0 0 1-.021 0l-.006-.023c0-.015-.007-.03-.011-.045s-.006-.03-.008-.045v-.033-.033a.285.285 0 0 1 .1-.219l.044-.044c.007-.034-.022-.085.045-.088l.044-.044.044-.044c0-.041.024-.049.048-.049a.434.434 0 0 0 .053 0h.017a.036.036 0 0 0 .018-.013c.044-.055.1 0 .148.01a2.648 2.648 0 0 0 .39.012c.021 0 .049-.007.065.006a.034.034 0 0 1 .009.014.07.07 0 0 1 0 .023c.034.006.085-.021.088.045l.044.044.044.044.044.044.045.044c.066 0 .037.055.044.089a.281.281 0 0 1 .007.289zm-10.635-3.585c-.106.018-.192-.046-.292-.05a.574.574 0 0 1-.273-.033c-.079-.041-.189-.018-.288-.046a1.342 1.342 0 0 1-.5-.138c-.105.014-.187-.069-.274-.08a1.186 1.186 0 0 1-.293-.1c-.089-.034-.167-.1-.256-.129a6.414 6.414 0 0 1-1.087-.631 1.739 1.739 0 0 1-.245-.2 9.856 9.856 0 0 1-.81-.766 8.433 8.433 0 0 1-.822-1.095 9.728 9.728 0 0 1-.679-1.289c-.121-.266-.2-.551-.3-.829-.072-.213-.139-.429-.209-.643l-.013-.017a1.908 1.908 0 0 0-.094-.56c-.03-.224-.066-.447-.094-.671a4.092 4.092 0 0 0-.04-.49 4.206 4.206 0 0 1-.038-.779H81.21v2.081c0 .686-.006 1.372 0 2.058a18.513 18.513 0 0 0 .043 2.062V56.3a2.921 2.921 0 0 1 .046.535 2.833 2.833 0 0 1 .123.589c.041.219.106.431.164.644a9.416 9.416 0 0 0 .449 1.163 7.778 7.778 0 0 0 .488.882 5.425 5.425 0 0 0 .421.6c.158.2.327.4.5.589.086.094.2.161.291.254a4.432 4.432 0 0 0 .7.563 7.606 7.606 0 0 0 1.1.6 2.92 2.92 0 0 0 .543.181c.193.051.391.088.586.135a2.155 2.155 0 0 0 .38.045 1.505 1.505 0 0 0 .4.047c.021 0 .053-.011.064 0 .068.066.151.033.227.044a1.6 1.6 0 0 0 .248.04c.152 0 .293.081.446.047.087.073.2.011.286.055a.532.532 0 0 0 .186.034c.068.013.135.033.2.043a1.571 1.571 0 0 1 .356.051 3.318 3.318 0 0 0 .547.12c.176.039.356.076.531.114s.37.1.555.15a2.515 2.515 0 0 0 .584.143c.385.156.79.264 1.166.445.284.136.567.27.84.434a3.485 3.485 0 0 1 .673.509c.087.087.181.168.272.251V52.18a1.57 1.57 0 0 0-.26.003zm-2.084 4.771c-.009.083-.034.163-.055.262a.488.488 0 0 1-.275.19c-.126.133-.251.264-.376.4-.039.042-.072.088-.11.132l-.422.489c.064.073.039.161.046.262l-.155.059-.024.009c0 .019-.012.057 0 .073.054.062.043.13.04.216h-.087c-.01.015-.019.038-.03.039a1.063 1.063 0 0 1-.123 0h-.042l-.007.006c-.023.021-.019.052-.015.081v.022a.135.135 0 0 1 0 .021.053.053 0 0 1-.007.022l-.007.009a.087.087 0 0 1-.033.016l-.044.044a4.159 4.159 0 0 0-.222.594 1.58 1.58 0 0 1-.185.46h-.22c0-.014.008-.028.012-.042.013-.04.03-.079.047-.12a.4.4 0 0 0 .036-.184.187.187 0 0 0-.091.084l-.015.03-.009.021-.008.02-.016.04a.373.373 0 0 1-.038.072c-.016.022-.029.047-.048.078h-.231a.736.736 0 0 1 .051-.137.769.769 0 0 0 .139-.3l-.145.06-.12-.166v-.04l.752-.828v-.044a1.652 1.652 0 0 1-.417-.007l-.037-.009-.037-.007h-.883l.021.028a.488.488 0 0 0 .069.082.116.116 0 0 1 .04.099l.044.044c.066 0 .038.054.045.088h.088v.089c.067 0 .038.055.044.088l.045.044.043.029.045.03v.173c0 .011-.022.02-.037.03h-.005v.074l-.045.013a.282.282 0 0 1-.079 0h-.045l-.023-.006-.019-.006-.019-.008a.729.729 0 0 1-.114-.063.392.392 0 0 0-.009.1 1.078 1.078 0 0 1 .039.18A.078.078 0 0 1 89 60V60.035l-.018.041-.014.03c0 .01-.009.02-.013.03l-.07.035-.044.022-.023-.011h-.008l-.069-.034-.036-.018v-.068h-.089v-.088c-.014.019-.041.037-.042.056v.283l-.088.06v.069c-.084.042-.144.024-.177-.069a.07.07 0 0 1-.021 0 .036.036 0 0 1-.016-.01.045.045 0 0 1-.008-.032.19.19 0 0 0 0-.043c-.1-.057-.065-.187-.133-.263-.01-.011-.013-.027-.031-.041a1.084 1.084 0 0 1-.1.445c-.013.034-.057.056-.086.084a.063.063 0 0 1-.031.043h-.012c-.031.006-.071-.013-.1 0l-.032-.013v-.076a.133.133 0 0 1-.047-.022l-.01-.009-.009-.01-.009-.014-.008-.019V60.353a.532.532 0 0 0-.015-.078.128.128 0 0 0-.014-.031.057.057 0 0 0-.01-.014v-.09l-.158.313c-.1.029-.156.012-.181-.075-.124-.087-.08-.222-.091-.354h-.086l-.044.044-.044.045-.008.012-.037.052-.068.023-.013.017-.074-.086-.021-.025c-.011-.013-.028-.026-.036-.039v-.005a.019.019 0 0 1 0-.01v-.344h-.089l-.028.043-.039.049a.124.124 0 0 0-.064 0 .155.155 0 0 1-.051 0h-.01a.03.03 0 0 1-.012-.006l-.007-.007-.007-.009-.006-.01-.006-.014-.044-.044-.011-.01-.009-.011-.011-.017-.008-.016a.1.1 0 0 1 0-.068l.008-.017a.165.165 0 0 1 .031-.038l.044-.044c.007-.034-.022-.085.044-.089l.045-.044a.293.293 0 0 0 0-.048V59.282l.005-.005h.008a.081.081 0 0 1 .022 0v-.088h.088l.044-.044a.114.114 0 0 0 0-.03v-.032a.031.031 0 0 1 .02-.022.067.067 0 0 1 .023 0l.055-.061.044-.044.044-.044v-.045a1.575 1.575 0 0 1-.16 0h-.013a.162.162 0 0 0-.037.011.159.159 0 0 0-.039.022.1.1 0 0 1-.036.016h-.027a.219.219 0 0 1-.079-.009.186.186 0 0 1-.061-.031.066.066 0 0 0-.027-.012h-.54c-.011.014-.022.042-.035.042h-.275V59c.024 0 .056-.008.075.007l.005.006v.008a.062.062 0 0 1 0 .023l.044.044.044.044.044.044.044.044.045.044.044.045.044.044.044.044a.059.059 0 0 1 .031.009l.006.005c.015.019 0 .051.007.074h.017l.011.006.01.008.007.009v.04a.133.133 0 0 1-.018.065.493.493 0 0 0-.039.262.116.116 0 0 1 .022.007l.017.008a.1.1 0 0 1 .025.02l.006.007a.1.1 0 0 1 .018.045v.01a.2.2 0 0 1 0 .036l.044.044.177.177.044.044.044.055-.044.034v.049a.053.053 0 0 1-.005.019.03.03 0 0 1-.01.012h-.014a.137.137 0 0 1-.057-.009v-.076l-.133-.133-.044-.044-.044-.044a.722.722 0 0 1-.055-.032.207.207 0 0 1-.046-.04.13.13 0 0 1-.021-.034v-.013a.148.148 0 0 1 0-.022.128.128 0 0 1 0-.02v-.014h-.022a.029.029 0 0 1-.015-.01.045.045 0 0 1-.008-.032.186.186 0 0 0 0-.042H85.866l-.007-.006-.009-.011v-.009a.056.056 0 0 1 0-.015v-.014a.133.133 0 0 1 .018-.064.491.491 0 0 0 .039-.262l-.177-.177-.044-.044a.276.276 0 0 0-.047 0 .036.036 0 0 1-.032-.012v-.032l-.044-.045h-.108l-.054.069-.015.019-.044.044c-.011.014-.021.041-.034.042h-.172l-.045-.067-.014-.021H85.05a.043.043 0 0 1-.013-.014v-.023-.086A.084.084 0 0 0 85 59.09h-.157l-.044-.044-.035-.019-.032-.019-.049.028-.017.01-.044.044-.044.044a.308.308 0 0 1-.121.273.346.346 0 0 1-.123-.407c.028-.1.1-.187.052-.3l-.12-.013V58.6c-.033-.006-.085.022-.088-.044l-.045-.044-.044-.044-.044-.044h-.088v-.088l-.045-.044-.026-.01a.133.133 0 0 1-.027-.016.076.076 0 0 1-.013-.013l-.007-.011-.006-.014V58.198a.092.092 0 0 1 0-.024v-.012a.119.119 0 0 1 .013-.032l.007-.012a.183.183 0 0 1 .036-.038l.017-.013.018-.012.023-.014L84 58l.021-.013.021-.014h.177v-.081a.23.23 0 0 0-.077 0 .616.616 0 0 0-.126.04l-.03.011h-.012l-.021.007-.037.011h-.018a.17.17 0 0 1-.033 0h-.039a.282.282 0 0 1-.049-.008c.015-.078.036-.155.043-.235s0-.162 0-.243l-.044-.044h-.068a.16.16 0 0 0-.007-.02v-.02l-.016-.029a.176.176 0 0 1-.031-.1.109.109 0 0 1 .036-.065.211.211 0 0 1 .032-.027h.179a.183.183 0 0 1 .075.042.126.126 0 0 1 .016.017l.015.02.044.044h.008a.071.071 0 0 0 .019-.005l.008-.005.006-.009v-.02a.3.3 0 0 1 0-.048c-.066 0-.037-.055-.044-.088l-.086-.057v-.2l.086-.057v-.08l.1-.006h.113v-.068-.116a.253.253 0 0 1 .02-.075l.006-.012a.209.209 0 0 1 .043-.057h.07l.044-.044.044-.044.044-.044a.069.069 0 0 1 0-.021v-.011c.017-.022.053-.006.079-.012l.071-.1.047.038.019.015.015.015a.129.129 0 0 1 .017.021.046.046 0 0 1 .008.017.044.044 0 0 1 0 .035.354.354 0 0 1-.084.089l-.044.044-.044.044-.044.044-.045.31.109.043.035.013.071-.073c.035-.048-.044-.131.051-.161v-.091h.034a.135.135 0 0 1 .04.012.087.087 0 0 1 .02.012.022.022 0 0 1 .009.008l.007.008.006.009a.119.119 0 0 1 .01.02v.012a.165.165 0 0 1 0 .05.152.152 0 0 1 0 .221l-.042.057-.041.056v.241h.172a.293.293 0 0 0 0-.048v-.021a.027.027 0 0 1 .01-.011h.008a.079.079 0 0 1 .022 0l.044-.044v-.089h.108l.044-.044v-.119l.051-.043.105-.089.056-.047H85.1l-.025-.024-.011-.011-.032-.033-.032-.028.012-.023.08-.152c-.052-.092-.151-.039-.248-.059 0-.027-.005-.062-.01-.107l.21-.184-.027-.013-.086-.041-.063-.03-.067-.032v-.164l-.1-.079-.082-.065a.158.158 0 0 1 0-.06V55.52l.006-.011a.223.223 0 0 1 .023-.028l.007-.007a.909.909 0 0 0 .065-.069l.01-.013.009-.014-.261-.11v-.1a.225.225 0 0 1 .113-.048l.031-.009a.194.194 0 0 0 .033-.013l.021-.012.011-.01.012-.012-.162-.084-.143-.075-.068-.432-.109-.211-.062-.316.111-.129-.339-.25.073-.146h.262l-.151-.135-.072-.064-.139-.122-.2-.181v-.1l.04-.016h.024l.028-.012c-.056-.04-.106-.073-.152-.111-.131-.111-.276-.214-.255-.417 0-.006.009-.011.013-.016a.508.508 0 0 1 .166-.017.536.536 0 0 1 .078.009l.029.006.052.013.051.016.026.009c.034.012.067.026.1.041l.048.022a3.052 3.052 0 0 1 .81.469c.024 0 .056-.008.075.007l.005.006a.061.061 0 0 1 .009.031l.023.006a.113.113 0 0 1 .023.006.265.265 0 0 1 .039.014.667.667 0 0 1 .086.045l.039.025.114.078c.253.165.493.349.732.537l.053.043c.035.029.068.059.1.089l.046.046.023.025.032.035q.042.046.078.093a1.416 1.416 0 0 1 .14.196c.038.06.073.121.106.185.01.017.018.034.026.051l.029.06.017.039.015.039.014.039.013.043.009.036.007.039V54.711a.175.175 0 0 1-.016.076.156.156 0 0 1-.012.026l-.025.043c-.007.013-.015.025-.021.038a.183.183 0 0 0-.02.068l-.023.01-.022.011a.35.35 0 0 0-.059.039.475.475 0 0 0-.055.054l-.026.033-.028.041-.023.039v.006l-.024.047v.189a.085.085 0 0 0 0 .021.08.08 0 0 0 .005.02.33.33 0 0 0 .019.039l.015.027a.793.793 0 0 0 .023.039.437.437 0 0 0 .027.038.472.472 0 0 0 .03.037l.032.036.036.035c.024.022.05.044.077.065l.026.019.027.018c.02.013.04.026.061.037l.02.011a.717.717 0 0 0 .085.039.605.605 0 0 0 .068.023l.034.008.034.007.044.005a.505.505 0 0 1 .136-.386.345.345 0 0 0 .082-.184.455.455 0 0 1 .265-.34v-.179c-.1-.1-.222-.191-.221-.343l-.218-.251-.059-.015-.061-.016-.038.077c-.154-.1-.154-.1-.15-.423l.108-.111h.422a1.676 1.676 0 0 1 .549-.046 2.773 2.773 0 0 1 .786.65l-.145.028c.151.342.04.715.171 1.1l.056.044v.34a.414.414 0 0 0 .052 0h.017a.559.559 0 0 0 .163-.058l.048-.027.051-.031.1-.065a.977.977 0 0 0 .1-.093.374.374 0 0 0 .139-.341.788.788 0 0 1 0-.106v-.047l-.073-.082-.229-.229v-.4a2.661 2.661 0 0 1 .26-.456c.038-.041.062-.1.1-.135a4.44 4.44 0 0 1 .592-.548 7.608 7.608 0 0 1 .542-.348c.069-.04.123-.133.227-.092l.044-.044c0-.066.055-.037.089-.044.015-.023.026-.056.047-.068.074-.04.146-.081.219-.123s.146-.082.22-.121a2.442 2.442 0 0 1 .228-.1 1.6 1.6 0 0 1 .242-.076.138.138 0 0 1 .043-.03c.07-.032.149 0 .226-.012H92.079l.018-.007v.225l-.061.061-.062.062-.127.127-.085.085.045.143-.563.5h.263l-.018.026.049.025.042.021c-.01.034-.01.052-.019.059-.063.048-.127.094-.19.141l-.063.047-.013.011-.013.011-.093.086.11.032c.057.143-.072.273-.03.408l-.138.2.005.01.049.091-.091.1v.195l-.286.183c.049.076.189.025.19.138a.382.382 0 0 1-.033.112l-.015.006h-.047a.4.4 0 0 0-.1.011h-.011a.068.068 0 0 0-.016.01l-.007.007a.061.061 0 0 0-.01.012.142.142 0 0 0-.017.034c.117 0 .127.113.178.207l-.232.176.053.058a.23.23 0 0 1-.019.043.2.2 0 0 1-.026.036.725.725 0 0 1-.234.136l.234.179a.211.211 0 0 1-.041.076.113.113 0 0 1-.032.023.157.157 0 0 1-.046.011l-.037.005-.024.005c-.038.009-.076.023-.117.035l-.027.007.027.028.046.049.021.022v.151h-.4v.007a.348.348 0 0 0 .069.089l.034.032a.609.609 0 0 1 .082.084l.01.013.012.021a.12.12 0 0 1 .009.019.177.177 0 0 1 .007.023.222.222 0 0 1-.112.029h-.042l-.043-.008-.035-.008c-.028-.007-.057-.015-.086-.021a.278.278 0 0 0-.132 0l.018.028c.024.037.048.072.07.108l.02.033.025.046c.015.03 0 .072 0 .13a.823.823 0 0 1-.136-.028c-.03-.012-.059-.028-.089-.041l-.022-.009a.187.187 0 0 0-.106-.012V57.322l.005.016.008.017a.133.133 0 0 0 .012.02l.007.01.005.006.006.006a.209.209 0 0 0 .022.021l-.049.022-.035.015-.066.03h-.032l-.002-.015-.011-.008c-.04-.029-.082-.078-.136-.123l-.019-.015-.02-.015-.022-.014c-.008.051-.029.094-.016.112a.242.242 0 0 1 0 .275.054.054 0 0 0 0 .031v.017l.056.06.113.12.112.119.162.172v.357l.044.044c.024 0 .056-.008.075.007l.005.006v.031h.241a.118.118 0 0 0 .029-.007l.018-.007c.018-.008.036-.019.054-.028l.015-.004v-.3h.441c.047-.143.089-.287.141-.428.064-.172.141-.34.2-.514a.482.482 0 0 0 0-.466c.133-.171.24-.35.4-.526l.066.55-.027.043-.051.081c-.018.028-.035.056-.051.085l-.046.084c-.015.028-.023.048-.034.073a.758.758 0 0 0-.065.31.722.722 0 0 0 .069-.045.05.05 0 0 0 .014-.019 2.785 2.785 0 0 1 .312-.535.384.384 0 0 0 .047-.178 2.132 2.132 0 0 0 0-.227l.5-.552.034.015-.106.644a1.332 1.332 0 0 1-.12.118 1.39 1.39 0 0 0-.349.454c-.069.126-.149.246-.212.376a.1.1 0 0 0-.007.022c0 .019-.005.04-.009.06a.143.143 0 0 0 .139-.056l.013-.017.035-.054a1.868 1.868 0 0 1 .241-.277l.052-.273.476-.334c.075.087-.018.165-.027.25zm9.258-13.322h6.554v.044h-6.554zm10.754 18.476c-.227-.208-.484-.375-.715-.576s-.474-.42-.715-.625-.472-.387-.731-.6v.613a2.043 2.043 0 0 1-.042.58c-.022.072.01.148-.038.229a.977.977 0 0 0-.047.244 4.992 4.992 0 0 1-.339.968c-.061.123-.131.241-.2.36a2.516 2.516 0 0 1-.411.561c-.12.119-.241.239-.36.36a3.1 3.1 0 0 1-.786.562 5.084 5.084 0 0 1-.878.392 3.372 3.372 0 0 0-.37.122c-.121.053-.25.074-.372.117a2.085 2.085 0 0 1-.515.092 1.393 1.393 0 0 1-.424.048.341.341 0 0 1-.269.041c-.1-.015-.177.046-.27.049a4.823 4.823 0 0 0-.559.034c-.27.039-.547.005-.822.049-.241.038-.488-.016-.735.042-.171.04-.356-.005-.535.047-.135.04-.279-.012-.426.039a2.745 2.745 0 0 1-.445.044l-.6.1c-.26.043-.508.13-.764.189a1.294 1.294 0 0 0-.413.121c-.156-.032-.281.075-.428.093a1.985 1.985 0 0 0-.419.109 6.346 6.346 0 0 1-.673.189c-.41.1-.808.228-1.215.334-.323.084-.641.2-.963.29-.35.1-.688.237-1.043.318-.073.017-.135.061-.22.027-.343-.139-.7-.226-1.055-.339-.2-.065-.409-.118-.613-.179s-.377-.128-.57-.174c-.247-.06-.488-.143-.735-.205s-.49-.135-.738-.2a3.641 3.641 0 0 1-.4-.1 6.923 6.923 0 0 0-.777-.208c-.255-.061-.512-.122-.764-.19-.234-.063-.472-.1-.707-.158a2.494 2.494 0 0 0-.356-.05 3.6 3.6 0 0 1-.359-.039c-.167-.031-.341-.012-.513-.046s-.369-.012-.557-.042c-.262-.042-.532 0-.8-.047-.248-.04-.5.02-.756-.046-.145-.038-.3.021-.453-.031a3.216 3.216 0 0 0-.464-.052c-.2-.038-.4-.069-.6-.092a5.983 5.983 0 0 0-.675-.141 4.343 4.343 0 0 0-.516-.2c-.174-.078-.353-.145-.526-.227a5.712 5.712 0 0 1-.726-.444 3.725 3.725 0 0 1-.86-.84 3.029 3.029 0 0 1-.429-.727c-.038-.1-.07-.193-.111-.286a3.419 3.419 0 0 1-.227-.749 1.178 1.178 0 0 0-.047-.31c-.054-.1-.015-.2-.036-.3a1.16 1.16 0 0 1-.047-.292c.009-.211 0-.423 0-.655a5.4 5.4 0 0 1-.53.443c-.155.118-.282.273-.44.385-.245.174-.45.393-.692.57-.139.1-.26.228-.391.342a4.082 4.082 0 0 1-.312.265 3.372 3.372 0 0 0-.473.388c.019.165-.032.327.047.477a3.614 3.614 0 0 0 .127.7l.228.814c.193.332.319.7.521 1.026.164.269.364.51.527.776.233.172.367.438.6.615.181.136.344.3.53.434a5.372 5.372 0 0 0 .736.469 6.788 6.788 0 0 0 1.658.65c.13.038.267.06.4.109s.277.013.392.069c.136.067.28 0 .414.075.068.038.191-.024.258.014a.479.479 0 0 0 .252.034c.086 0 .166.03.248.042a3.485 3.485 0 0 1 .447.044c.135.037.281 0 .425.042s.281.015.424.045c.159.032.326.005.491.045a4.156 4.156 0 0 1 .425.045.631.631 0 0 0 .286 0c.106-.017.192.055.292.047.276-.021.546.074.823.044a1.318 1.318 0 0 0 .491.044c.015 0 .036-.006.044 0 .081.075.18.031.27.044s.194.033.292.044a2.4 2.4 0 0 1 .488.054 2.894 2.894 0 0 1 .324.072c.1.047.247.012.351.059a1.685 1.685 0 0 0 .247.046c.269.086.548.138.82.213.205.057.415.1.62.161s.387.1.581.148.411.114.617.167.4.095.6.143.416.1.622.155c.186.049.37.106.556.154.26.065.524.115.779.2a.331.331 0 0 0 .163 0c.209-.042.41-.118.618-.164.188-.042.377-.089.563-.138.219-.059.441-.109.66-.168s.408-.125.617-.166c.184-.036.359-.1.539-.143.207-.055.422-.085.627-.145.271-.079.547-.139.82-.211.207-.054.412-.113.62-.161.23-.052.458-.114.691-.151a2.272 2.272 0 0 0 .333-.054c.1-.03.2.007.269-.039.094-.062.184-.023.274-.038.029 0 .071.012.086 0 .082-.084.183-.025.272-.041s.194-.035.292-.044a1.647 1.647 0 0 0 .449-.039 1.127 1.127 0 0 1 .286-.007c.09-.007.179-.034.269-.041a1.258 1.258 0 0 0 .469-.046 5.92 5.92 0 0 0 .623-.041 5.023 5.023 0 0 1 .669-.048.038.038 0 0 0 .022 0c.111-.08.238-.031.358-.044a2.1 2.1 0 0 1 .38-.047 4.955 4.955 0 0 1 .535-.042h.021c.088-.081.195-.029.292-.044s.209-.032.314-.044a2.113 2.113 0 0 0 .443-.053c.1-.035.2-.005.291-.045.191-.087.412-.06.595-.168a4.944 4.944 0 0 0 1.206-.4 5.075 5.075 0 0 0 .884-.483 5.761 5.761 0 0 0 .886-.695 5.312 5.312 0 0 0 .705-.793c.141-.216.3-.419.433-.641.121-.205.207-.431.32-.642a3.7 3.7 0 0 1 .215-.486 10.846 10.846 0 0 0 .273-1.129 2.179 2.179 0 0 1 .045-.4 1.463 1.463 0 0 0 .036-.279c-.247-.2-.492-.388-.717-.594zM78.1 65.607l-.145-.23a.3.3 0 0 1-.007-.348 3.226 3.226 0 0 0 .214-.442.356.356 0 0 0-.038-.372.267.267 0 0 1-.026-.07c-.232.095-.416.272-.648.359-.115-.069-.119-.194-.2-.3l1.511-.928c.154.1.191.259.276.383a4.45 4.45 0 0 1 .241.386.955.955 0 0 1 .111.284.441.441 0 0 1-.267.468.45.45 0 0 1-.272.092.891.891 0 0 1-.335-.153c-.017-.009-.018-.046-.034-.094a2.844 2.844 0 0 1-.381.965zm.9.417l.019.017.018.018c.047.048.087.1.138.145a.4.4 0 0 0 .04.03l.017.01.015.009a.285.285 0 0 0 .039.017.063.063 0 0 1 .022.014l.009.008.01.011.019.022.01.011.01.01.029.028.024.025.018.018.043.042a.505.505 0 0 0 .131.1c.052.024.112.076.1.133l-.022.023-.022.022-.042.042-.021.021-.065.064-.026.026-.122-.1-.9-.758c.177-.248.376-.461.565-.682.168-.2.334-.392.509-.6l.076-.089a.554.554 0 0 1 .129.062c.24.206.476.417.716.623.063.054.135.1.217.158l-.193.214-.046-.025-.026-.015-.046-.029a1.995 1.995 0 0 1-.075-.052l-.035-.026-.068-.053-.026-.022a1.59 1.59 0 0 1-.075-.065l-.069-.061c-.051-.046-.1-.092-.153-.137l-.044-.038-.03-.025-.032-.025-.032-.026-.055.062-.056.064-.123.14a.461.461 0 0 0 .041.1l.011.01h.006a1.174 1.174 0 0 1 .261.223c.093.079.188.154.277.236a.18.18 0 0 1 .035.076l-.026.026-.025.025-.143.143-.589-.5-.086-.073-.036.043-.036.044-.072.088-.037.046-.059.072-.057.069zm2.874.612a.582.582 0 0 1-.26.311.446.446 0 0 1-.4.031 3.034 3.034 0 0 1-.417-.17.385.385 0 0 0-.1-.021 4.233 4.233 0 0 1-.316.593l-.293-.155a1.489 1.489 0 0 1 .058-.18c.184-.4.372-.79.557-1.186.04-.086.071-.177.11-.276a1.179 1.179 0 0 1 .194.061 5.112 5.112 0 0 0 .5.239.659.659 0 0 1 .41.385.818.818 0 0 1-.041.368zm1.681.271c-.005.011-.011.021-.015.032a.538.538 0 0 0-.021.056l-.008.027a.379.379 0 0 0-.011.042c0 .014-.006.028-.009.043l-.006.035-.011.069c0 .023-.007.046-.011.069l-.012.069a.878.878 0 0 1-.026.1l-.008.025a.422.422 0 0 0-.012.042c0 .017-.009.034-.013.051l-.012.051c-.014.064-.028.129-.048.192a.289.289 0 0 1-.011.03l-.009.022a.282.282 0 0 1-.018.036l-.014.024v.007a.354.354 0 0 1-.023.032.349.349 0 0 1-.027.03.468.468 0 0 1-.059.054.541.541 0 0 1-.066.044l-.034.018a.461.461 0 0 1-.053.022l-.026.01-.033.01-.047.011-.046.007h-.177l-.042-.005-.043-.008h-.011l-.046-.01-.055-.015-.055-.017-.108-.038a.527.527 0 0 1-.361-.513v-.144-.06c0-.02 0-.04.006-.06v-.04l.006-.039c0-.025.01-.05.015-.075s.006-.024.01-.036V67.1l.006-.023v-.006c0-.01.006-.02.01-.03l.016-.043a.554.554 0 0 0 .005-.146v-.012a.1.1 0 0 1 .041-.067c-.006-.2.083-.384.095-.6.047.011.091.024.135.031h.023l.05.006.054.006h.045l.05.006a2.013 2.013 0 0 1-.06.447c0 .01-.007.02-.01.03l-.008.03a.305.305 0 0 0-.006.03l-.017.092-.005.03-.006.03a.562.562 0 0 1-.023.08.64.64 0 0 0-.035.163l-.007.086c0 .028 0 .056-.008.085v.043l-.011.016-.01.016a.211.211 0 0 0-.015.032.18.18 0 0 0 .037.187c.056.068.119.129.173.187h.328l.016-.01.014-.01.014-.011a.212.212 0 0 0 .024-.025l.011-.014a.241.241 0 0 0 .02-.031.165.165 0 0 0 .011-.022l.011-.025a.286.286 0 0 0 .027-.035l.007-.027c.007-.028.012-.058.018-.087.029-.165.062-.331.1-.492a3.637 3.637 0 0 1 .147-.625l.056.01.058.011.12.021.082.014c.069.157-.061.304-.031.46zm1.77.749c.062.369.053.394-.25.7a3.476 3.476 0 0 1-.36.032c-.1 0-.187-.053-.291-.044a.685.685 0 0 1-.293-.034 1.1 1.1 0 0 0-.343-.008c0-.031-.019-.07-.007-.1a1.231 1.231 0 0 0 .044-.424 1.981 1.981 0 0 0 .046-.291.377.377 0 0 1 .04-.291v-.022c-.028-.225.076-.441.039-.683a1.05 1.05 0 0 1 .466.03.347.347 0 0 0 .107.008c.149.014.3.025.446.045a.562.562 0 0 1 .4.4.474.474 0 0 1-.18.393c-.027.023-.056.043-.084.064l.221.221zm1.636.914c-.122-.019-.247.014-.368-.007h-.05l-.032-.012-.017-.008-.016-.009a.054.054 0 0 0-.019 0c-.254.035-.5-.068-.774-.04.019-.146-.043-.288.041-.424a.111.111 0 0 0 0-.065c-.029-.277.061-.546.048-.823a1.854 1.854 0 0 1 .039-.247c.007-.08 0-.161 0-.247a.2.2 0 0 1 .053-.012c.118-.009.222.084.34.037 0 .015 0 .031-.006.046-.008.065-.018.127-.024.186V67.005a.683.683 0 0 0 0 .08c.009.133-.047.252-.048.38a1.017 1.017 0 0 1-.01.372c-.054.127-.009.244-.042.37l.016.006.018.006h.253l.08.008.223.027.057.006h.232zm.809-1.607v.044a.535.535 0 0 1-.012.056l-.009.038a.515.515 0 0 0-.026.078 1.55 1.55 0 0 1-.045.512c0 .037.005.075.005.112v.163c0 .027-.005.054-.009.081l-.006.053-.005.043c0 .026-.006.052-.009.078v.077c0 .013 0 .05-.006.075s0 .079 0 .12v.056c0 .019 0 .038.006.057h-.411c.026-.1-.034-.194.045-.276.007-.008.005-.028.005-.041 0-.111-.006-.221 0-.331s.034-.194.042-.291c.021-.286.037-.573.055-.864h.31l.018.018a.173.173 0 0 1 .042.073v.016a.238.238 0 0 1 0 .039zm1.335 1.865l-.044-.111-.129-.334-.087-.226-.089-.231-.04.028-.261.177-.035.023c-.029.16-.061.344-.1.549l-.078-.014-.259-.046c.018-.1-.042-.218.043-.323.011-.013 0-.043 0-.065a.667.667 0 0 1 .039-.271.1.1 0 0 0 .007-.021.232.232 0 0 0 .009-.044c0-.028 0-.056.007-.086V67.761a.18.18 0 0 1 .006-.024l.011-.042v-.042a.476.476 0 0 0 .009-.048v-.035c0-.035.008-.07.012-.1V67.396l.006-.055a4.063 4.063 0 0 1 .067-.372l.023-.111.17.023.085.012.087.012v.045a.532.532 0 0 1 0 .072v.029a.772.772 0 0 1-.014.1c0 .026-.01.052-.016.079l-.019.086-.011.048c0 .018-.007.036-.01.053l-.005.032c0 .021 0 .042-.005.063v.159l.821-.652.227.045.124.024.135.027-.789.58.542 1.226zm2.291.348c-.006.072 0 .145 0 .238l-.336-.1c-.1-.131-.052-.28-.064-.427l-.69-.192-.278.362-.367-.1 1.132-1.585.366.1c.019.072.043.152.06.232s-.012.167.026.255a.73.73 0 0 1 .019.257c0 .085.061.155.048.247a.387.387 0 0 0 .034.228c.034.072-.005.176.011.261a.8.8 0 0 1 .043.225zm3-.951c-.01.088-.019.177-.032.266s-.028.165-.044.247c-.011.059.013.123 0 .183a.041.041 0 0 1 0 .014.13.13 0 0 1-.036.053v.007a.175.175 0 0 0 0 .044v.012a.942.942 0 0 1-.039.293v.017a.263.263 0 0 0-.007.035.24.24 0 0 0 0 .028V69.561a.3.3 0 0 1-.006.037.251.251 0 0 1-.011.037.773.773 0 0 0-.006.263l-.06.117-.081-.012-.125-.018-.139-.02-.559-1.258-.158 1.132h-.282l-.02-.024-.015-.018-.018-.022a.471.471 0 0 1 .037-.255c.032-.084-.037-.187.044-.272.018-.019 0-.071 0-.107a2.421 2.421 0 0 1 .052-.488c.033-.109 0-.221.043-.313a1.019 1.019 0 0 0 .04-.3h.326c.215.386.363.82.559 1.231h.041l.144-1.081.014-.007a.163.163 0 0 1 .027-.011h.017a.205.205 0 0 1 .08 0h.015l.027.006c.018 0 .036.011.053.017l.026.009.044.014h.045zm2.03 1.444l-.03.026a1.226 1.226 0 0 1-.145.104.626.626 0 0 1-.058.032l-.03.015a1.262 1.262 0 0 1-.158.064l-.059.018-.031.009-.047.011-.059.012H95.504l-.055-.009a.728.728 0 0 1-.081-.021.514.514 0 0 1-.054-.019l-.04-.017-.04-.019-.054-.03-.042-.026c-.013-.009-.026-.017-.038-.027l-.009-.006-.038-.03q-.02-.017-.038-.035a.593.593 0 0 1-.124-.169c-.036-.074-.08-.144-.127-.227-.009-.07.022-.161-.045-.233a1.1 1.1 0 0 1 .155-.622.32.32 0 0 1 .019-.031.224.224 0 0 1 .015-.023l.021-.028.022-.027.015-.016.022-.022a.441.441 0 0 1 .037-.033l.036-.028a.722.722 0 0 1 .058-.038l.045-.026a1.269 1.269 0 0 1 .142-.065.724.724 0 0 1 .089-.028 1.063 1.063 0 0 1 .189-.027H95.802a1.385 1.385 0 0 1 .187.041.246.246 0 0 1 .045.019l.023.014.025.017a.3.3 0 0 1 .025.02l.022.019.026.026a.889.889 0 0 1 .051.056l.023.028.024.032.021.03a.93.93 0 0 1 .034.052l.027.045.025.046-.232.088-.068.026-.034-.033L96 68.6l-.027-.027-.138-.138h-.405l-.063.055-.178.154-.039.034c-.011.124-.03.257-.031.39a.468.468 0 0 0 0 .067c0 .02.006.039.011.057a.318.318 0 0 0 .009.031l.01.031.012.03.013.03.022.046a3.328 3.328 0 0 0 .086.145.217.217 0 0 0 .031.038.146.146 0 0 0 .022.018l.01.007.021.013.015.007a1.122 1.122 0 0 0 .131.047l.019.006a.524.524 0 0 0 .063.018h.026a.194.194 0 0 0 .146-.033 1.249 1.249 0 0 1 .175-.059.393.393 0 0 0 .059-.024l.032-.021.046-.031h.006v-.264l-.027.007-.052.015-.045.012-.022.006-.056.01a.979.979 0 0 1-.148 0h-.08v-.3c.122 0 .242-.062.381-.057a1.076 1.076 0 0 0 .164-.008l.043-.005.1-.013.092-.012.063.72a1.168 1.168 0 0 1-.071.07zm2.805-1.5a.462.462 0 0 1-.248.223 5.874 5.874 0 0 0-.557.2l.152.624-.35.12-.46-1.767c.293-.105.594-.146.882-.237a.931.931 0 0 1 .339.027 1.482 1.482 0 0 1 .2.209.618.618 0 0 1 .044.6zm.936.662a.738.738 0 0 0-.141.052L100 68.9c-.023-.083-.042-.148-.059-.214l-.018-.076-.017-.076c-.006-.025-.007-.034-.01-.051l-.026-.135-.026-.135-.035-.179-.018-.089a5.05 5.05 0 0 0-.039-.177 2.707 2.707 0 0 0-.119-.523l-.006-.015v-.033a.12.12 0 0 1 0-.025v-.033l.006-.014.008-.013.01-.012a.1.1 0 0 1 .026-.018l.3-.053c.151.585.246 1.191.383 1.809a1.259 1.259 0 0 0-.193-.003zm1.944-.224h-.273c-.036 0-.071.005-.106.01l-.04.005-.09.013-.044.006h-.032a.956.956 0 0 1-.256 0h-.007a.2.2 0 0 1-.038.02l-.023.009-.023.006h-.023a.657.657 0 0 1-.13 0h-.059a.593.593 0 0 0-.137.007.672.672 0 0 0 0-.1v-.063c0-.02 0-.042-.007-.063-.007-.052-.017-.1-.024-.154 0-.02-.006-.04-.008-.06v-.092a.737.737 0 0 1 0-.091c.008-.094-.051-.188-.042-.291a.5.5 0 0 0-.028-.269.225.225 0 0 0-.012-.023.05.05 0 0 1-.006-.016.686.686 0 0 1 0-.093.7.7 0 0 0-.042-.336c-.015-.028 0-.07 0-.118l.048-.008.187-.031.163-.027V67.082a4.787 4.787 0 0 1 .045.622c.077.112.03.238.045.358v.031c0 .031.011.062.017.1s.019.09.029.144a2.233 2.233 0 0 0 .5-.042.924.924 0 0 1 .329 0h.022l.017.01.017.012a.347.347 0 0 0 .033.024v.255zm.781-.1l-.021.013a.194.194 0 0 1-.028.013l-.021.008H102.796l-.039.007h-.178l-.065-.127v-.088a7.6 7.6 0 0 0-.053-.862 1.515 1.515 0 0 1-.014-.113c-.01-.113-.011-.224-.018-.335v-.064a1.514 1.514 0 0 0-.051-.21l.054-.009.155-.026.1-.016.1-.017a1.65 1.65 0 0 0 .018.439l.005.037c0 .022.006.044.008.065v.269a.408.408 0 0 0 0 .045v.02c0 .042.014.083.022.125l.006.034a.576.576 0 0 1 .009.067 1.246 1.246 0 0 0 .008.307 1.425 1.425 0 0 1 .039.394zm1.59-.875a.664.664 0 0 1-.3.086c-.112.006-.222.031-.344.05a1.564 1.564 0 0 0 .066.63 1.4 1.4 0 0 1-.2.068 1.525 1.525 0 0 1-.217 0v-.172c.015-.217-.079-.427-.045-.646-.07-.143-.011-.3-.051-.445a2.7 2.7 0 0 1-.039-.531 1.968 1.968 0 0 1 .644-.067.327.327 0 0 0 .088 0 .473.473 0 0 1 .5.089c.088.061.115.164.184.247v.235a.463.463 0 0 1-.286.466zm.992.658a.078.078 0 0 1-.063 0c-.019-.009-.032-.03-.063-.061a.964.964 0 0 1 0-.111v-.182c0-.034-.011-.069-.018-.1l-.01-.056c0-.014 0-.028-.007-.043l-.013-.037v-.042V67.587a.262.262 0 0 1 0-.029v-.011a.164.164 0 0 1 0-.023c-.063-.121-.009-.263-.052-.377-.068-.179.012-.371-.079-.542-.015-.028 0-.07 0-.106l.4-.07c0 .09-.006.162 0 .234 0 .02 0 .039.006.059s0 .039.007.059l.008.059.021.137c.014.1-.037.2.043.292.007.008 0 .029 0 .043.015.208.026.416.046.623 0 .051.014.1.024.155 0 .026.011.053.016.08l.016.084c-.105.012-.202-.015-.282.046zm2.354-.447l-.094.017-.081.014-.167.03-.906-.906-.047.026.247 1.067-.039.01-.037.009-.1.026-.04.01-.06.014-.021-.009-.013-.008h-.006a.068.068 0 0 1-.015-.015.109.109 0 0 1-.012-.018l-.009-.019a.365.365 0 0 1-.015-.052c-.09-.389-.192-.775-.288-1.163l-.025-.076-.041-.169-.021-.086-.031-.131.052-.01.094-.017.1-.018.149-.027.943.943a.431.431 0 0 0 0-.07c0-.015 0-.031-.007-.046s-.005-.024-.008-.036l-.009-.032c0-.012-.006-.022-.01-.034l-.03-.1c0-.014-.008-.029-.012-.044v-.022c-.024-.124-.068-.241-.088-.361a3.117 3.117 0 0 0-.1-.39l.345-.067.157.622.154.613q.051.2.1.406a.613.613 0 0 1-.009.13zm1.728-.879l-.226-.236a1.945 1.945 0 0 0-.705.331l.055.416-.34.2c-.012-.021-.024-.033-.024-.045a1.127 1.127 0 0 0-.04-.337c-.036-.1.027-.23-.05-.333.035-.161-.055-.308-.047-.468a1.393 1.393 0 0 0-.04-.247.714.714 0 0 0-.038-.25.657.657 0 0 1-.007-.262.576.576 0 0 1 .376-.146c.238.194.488.393.731.6a8.448 8.448 0 0 1 .714.61c-.143.026-.213.191-.359.164zm1.513-1.409l-.027.07a2.361 2.361 0 0 1-.05.116l-.008.019a.745.745 0 0 1-.155.228l-.03.027-.032.026a2.313 2.313 0 0 1-.16.105l-.068.039-.077.043-.041.023h-.141c-.029 0-.051 0-.076-.006l-.037-.006-.03-.006-.059-.017a.578.578 0 0 1-.057-.022.66.66 0 0 1-.165-.107l.213-.283.133.049.128.047a.57.57 0 0 0 .377-.31v-.2l-.127-.138-.047.023-.139.069-.046.023-.068.036-.067.037c-.065.038-.128.081-.194.116l-.025.013-.051.022a.344.344 0 0 1-.051.018l-.052.012-.036.006-.014.014a.148.148 0 0 1-.043.029h-.012a.136.136 0 0 1-.073 0h-.013a1.08 1.08 0 0 1-.123-.049.122.122 0 0 0-.024-.008h-.012l-.024-.006-.024-.008-.016-.007-.031-.016a.277.277 0 0 1-.057-.046l-.015-.019a.226.226 0 0 1-.03-.061.152.152 0 0 1-.008-.027.486.486 0 0 0-.078-.133.651.651 0 0 1 .017-.24l.008-.027.009-.027a.694.694 0 0 1 .03-.068.112.112 0 0 1 .01-.018c0-.009.01-.018.015-.027a.955.955 0 0 1 .1-.133l.023-.026.06-.063.032-.031a.638.638 0 0 1 .055-.048l.024-.019a.7.7 0 0 1 .089-.057l.019-.01.019-.01a.661.661 0 0 1 .081-.031l.03-.008.031-.007a.719.719 0 0 1 .246 0l.027.014.027.014.047.024.121.062-.057.07-.171.21-.033-.006-.228-.046-.053.054-.052.052-.172.172v.15a.147.147 0 0 0 .221.042 3.376 3.376 0 0 0 .426-.252.422.422 0 0 1 .106-.056l.019-.007h.007l.041-.012.024-.006h.033l.034-.006.089-.015a.137.137 0 0 1 .033 0H110.645a.329.329 0 0 1 .071.023l.027.012a.188.188 0 0 1 .029.015.363.363 0 0 1 .051.036 1.384 1.384 0 0 1 .139.123l.012.013a.386.386 0 0 1 .032.04l.013.02.014.025a.182.182 0 0 1 .011.026.169.169 0 0 1 .008.023.275.275 0 0 1 .009.036.206.206 0 0 1 0 .026.314.314 0 0 1 0 .032v.02c0 .03.029.061.043.089l-.038.1zm-32.542-6.323a8.658 8.658 0 0 1-.764.635c-.147.11-.285.235-.438.337a6.139 6.139 0 0 1-.81.5 2.666 2.666 0 0 1-.589.229 1.143 1.143 0 0 1-.862-.13 1.352 1.352 0 0 1-.587-.792 1.272 1.272 0 0 1-.007-.585 3.062 3.062 0 0 1 .508-1.072 1.083 1.083 0 0 1 .313-.309 1.747 1.747 0 0 0 .2-.163c.2-.186.4-.383.61-.56.282-.238.561-.476.823-.736a1.866 1.866 0 0 1 .215-.158v.891c0 .12.031.238.041.358s.059.214.077.322a2.036 2.036 0 0 0 .32.732.985.985 0 0 0 .361.317 1.314 1.314 0 0 0 .589.184zm36.343.5a1.391 1.391 0 0 1-.063.315 1.537 1.537 0 0 1-.037.1 1.222 1.222 0 0 1-.1.186 1.045 1.045 0 0 1-.131.171l-.08.088a2.21 2.21 0 0 1-.083.085l-.032.029-.035.029a.706.706 0 0 1-.126.082l-.136.07-.081.037-.042.016a.565.565 0 0 1-.171.013h-.018a1.215 1.215 0 0 0-.159 0h-.061a.607.607 0 0 1-.062 0 .721.721 0 0 1-.123-.018l-.033-.008-.047-.013-.046-.015-.062-.023-.061-.025-.089-.039-.053-.024-.053-.025-.052-.026-.1-.049-.046-.024-.084-.046c-.06-.034-.118-.068-.177-.1l-.11-.067-.021-.013q-.125-.078-.25-.159l-.13-.084a2.43 2.43 0 0 1-.236-.18l-.171-.145-.058-.047c-.2-.163-.411-.323-.616-.485a.931.931 0 0 1-.087-.086l-.014-.014q.055-.006.107-.018c.035-.007.07-.015.1-.023l.1-.028.1-.028a.415.415 0 0 0 .065-.024l.03-.015a.648.648 0 0 0 .057-.033l.055-.036.028-.019a1.358 1.358 0 0 0 .453-.5 3.541 3.541 0 0 0 .233-.611.83.83 0 0 0 .032-.219v-.055c0-.03 0-.059.006-.088s0-.036.006-.053v-.028a4.769 4.769 0 0 0 .042-.889v-.049-.1c.2.185.392.358.583.529l.077.067.233.2.036.032.034.035.055.06a.6.6 0 0 0 .068.064l.025.019.03.019a.34.34 0 0 0 .046.021c.012 0 .021.021.031.03l.285.266.143.133.143.133.084.078.023.02.007.006.014.012h.006l.026.02.041.031.058.046.028.024.025.027a.566.566 0 0 1 .045.056c.014.02.027.04.039.061.023.038.044.077.068.114l.007.011c.013.02.027.041.042.06a.722.722 0 0 1 .111.186c.008.025.017.05.027.074s.013.035.021.052l.038.087.045.1.023.051.022.052a1.256 1.256 0 0 1 .044.127c0 .014.007.029.011.044a.714.714 0 0 1 .015.09v.045l.023.105.005.031a.307.307 0 0 1 0 .031.356.356 0 0 1 0 .057zm-2.428.937l-.031.019-.03.02-.058.041c-.019.014-.036.029-.054.044s-.034.031-.05.047l-.036.037-.034.038-.032.039-.011.014-.04.054-.021.032-.035.054c-.012.018-.02.032-.029.049s-.027.046-.039.07-.034.064-.051.1l-.059.119-.046.1c-.106-.08-.205-.148-.3-.226l-.122-.108c-.121-.109-.24-.22-.362-.328-.037-.033-.076-.065-.114-.1l-.118-.093c-.042-.033-.075-.075-.113-.112a.38.38 0 0 0-.03-.028l-.013-.011a.287.287 0 0 0-.074-.043c-.057-.022-.094-.092-.143-.136-.069-.061-.116-.15-.216-.174h-.006c-.008-.006-.014-.019-.023-.025a.084.084 0 0 1-.025-.019l-.006-.007-.006-.008a.11.11 0 0 1-.011-.017v-.009l-.022-.046a.131.131 0 0 0-.013-.024l-.007-.011-.012-.021a.1.1 0 0 0-.025-.02.119.119 0 0 0-.035-.012.376.376 0 0 1-.053-.015l-.04-.016-.069-.032-.028-.005-.03-.013-.012.012-.007.007-.007.007a.088.088 0 0 1-.015.013h-.016a.385.385 0 0 0-.1.019.4.4 0 0 0-.057.025l-.026.016a.361.361 0 0 0-.05.04.254.254 0 0 0-.024.024l-.022.026a.259.259 0 0 0-.021.028l-.021.03-.018.029-.007.012-.028.051a1.3 1.3 0 0 0-.114.284.592.592 0 0 1-.225.349h-.129l-.1-.1-.048-.049-.042-.047-.008-.011-.018-.023a.729.729 0 0 1-.021-.029.669.669 0 0 1-.043-.072l-.015-.031v-.007l-.011-.024-.014-.039-.013-.042a2.126 2.126 0 0 1 .282-.983 2.842 2.842 0 0 1 .407-.584l.044-.051.041-.049.041-.049.04-.048.042-.048.03-.033c.02-.021.04-.041.062-.061l.142-.125c.048-.041.1-.081.147-.119a3.668 3.668 0 0 1 .156-.107c.027-.017.058-.034.088-.05l.037-.019.043-.021a.812.812 0 0 1 .377-.108c.03 0 .062-.025.1-.04l.652.167.024.06.023.059.019.049.01.026a.642.642 0 0 1-.144.121.452.452 0 0 1-.223.043 1.217 1.217 0 0 0-.358.055h-.021l-.021.006-.02.007h-.01l-.023.012-.012.008-.011.007-.015.012a.158.158 0 0 0-.02.019l-.006.006-.018.02-.009.011-.012.016-.009.014a.27.27 0 0 0-.016.029.278.278 0 0 0-.026.075v.021a.4.4 0 0 0 .027.159.68.68 0 0 0 .341.455.259.259 0 0 1 .071.068.262.262 0 0 0 .023.024c.133.118.27.229.41.338l.21.163.21.162.1.071.089.062.106.072.2.132.049.034.062.043.062.044c.041.03.082.061.122.093zm-33.665-1.476c.118-.238.2-.435.052-.651a1.03 1.03 0 0 0-.491-.118c-.2 0-.2 0-.359-.153v-.145a1.635 1.635 0 0 1 .727-.218.86.86 0 0 1 .185.037 2.185 2.185 0 0 1 .764.452c.058.057.112.117.173.172a3.234 3.234 0 0 1 .762 1.1 1.292 1.292 0 0 1 .135.564v.292c-.142.118-.19.365-.453.334-.146-.061-.161-.218-.205-.342a3.478 3.478 0 0 0-.182-.412c-.078-.152-.233-.167-.366-.212-.053-.018-.13.031-.2.051l-.23.23a5.538 5.538 0 0 1-.572.487c-.113.087-.2.2-.324.284-.152.107-.281.248-.423.37-.081.07-.168.132-.263.206a1.106 1.106 0 0 1-.1-.161 1.407 1.407 0 0 0-.585-.693 14.418 14.418 0 0 0 1.955-1.474zM110 61.026a6.116 6.116 0 0 1-.094.845.926.926 0 0 1-.109-.038l-.078-.036-.015-.007-.074-.038-.045-.025-.09-.054-.048-.031-.044-.029a2.073 2.073 0 0 1-.137-.1l-.03-.023-.052-.041-.043-.035-.087-.076c-.028-.025-.044-.041-.064-.061l-.077-.081-.03-.035c-.018-.021-.033-.042-.047-.061l-.009-.013a.469.469 0 0 1-.032-.052l-.015-.031v-.009l-.006-.015v-.024l.153.031.11.022a.961.961 0 0 0 .356-.556.83.83 0 0 1 .155-.29.992.992 0 0 1 .061-.057l.024-.019.023-.016.017-.011.012-.006.011-.005a.069.069 0 0 1 .017-.006H109.748a.188.188 0 0 1 .075 0l.027.009.023.01.014.007a.61.61 0 0 1 .054.03l.034.022.009.006.028.02c-.012.276-.012.578-.012.879zm-30.589.841a.864.864 0 0 1-.062-.23 14.96 14.96 0 0 1-.046-1.5l.117-.114a.365.365 0 0 1 .421.264c.056.146.113.292.178.434a.55.55 0 0 0 .136.206c.079.062.177.123.284.027.024-.022.069-.023.128-.04a1.639 1.639 0 0 1-.519.593 2.12 2.12 0 0 1-.64.36zM78.42 56.8l-1.142.626c-.01-.285-.06-.537-.06-.8a.743.743 0 0 1 .511-.69.475.475 0 0 1 .414.041c.105.06.131.156.186.238a.555.555 0 0 1 .091.338c-.003.086 0 .167 0 .247zm32.765-.842a.448.448 0 0 1 .129-.057.647.647 0 0 1 .431.129.26.26 0 0 1 .031.031c.314.3.256.268.258.6v.706a.3.3 0 0 1-.008.038c-.037 0-.085 0-.115-.014a7.581 7.581 0 0 0-.772-.429 1.064 1.064 0 0 1-.157-.1.3.3 0 0 1-.133-.373 2.283 2.283 0 0 1 .083-.252 1.854 1.854 0 0 1 .23-.3l.021.026zm.535 2.523a1.071 1.071 0 0 1-1.131.605c0-.013-.01-.025-.015-.037l-.015-.033c0-.01-.009-.019-.014-.029v-.007c-.009-.018-.018-.036-.025-.054a.283.283 0 0 1-.014-.036.3.3 0 0 1-.011-.037v-.039a.276.276 0 0 1 .012-.1.361.361 0 0 1 .331-.15h.121l.045-.006.036-.008.028-.006.059-.017a.924.924 0 0 0 .092-.035q.038-.016.077-.035l.032-.016.046-.024.077-.17a.419.419 0 0 1 .043.025.4.4 0 0 1 .038.028l.035.031.131.133zm-34.145-.012l.254-.221c.07.094.114.221.244.246a1.482 1.482 0 0 0 .327.064c.068 0 .146-.037.206.03.147-.006.179.1.22.217l-.139.27a1.036 1.036 0 0 1-.782-.181.647.647 0 0 1-.33-.422zm31.182 2.433H108.702a.061.061 0 0 1-.021-.009l-.009-.009v-.028a.109.109 0 0 1 .012-.029l.009-.016.034.048.032.045zm0 0v.044l-.044-.044h.044zm-7.219-17.228v-.045c0-.216-.059-.426-.049-.646a6.267 6.267 0 0 0-.039-.667v-.022c-.063-.075-.036-.164-.045-.248s-.027-.18-.044-.269c-.028-.151-.057-.3-.089-.45-.009-.039-.039-.076-.042-.115a3.1 3.1 0 0 0-.127-.523c-.056-.22-.153-.424-.225-.637a5.534 5.534 0 0 0-.23-.591 9.674 9.674 0 0 0-.657-1.19 7.013 7.013 0 0 0-.694-.926 7.734 7.734 0 0 0-1.05-.98 8.448 8.448 0 0 0-.91-.587 3.2 3.2 0 0 0-.592-.277 3.324 3.324 0 0 0-.489-.163 1.393 1.393 0 0 0-.363-.08c-.158-.105-.356-.054-.521-.133a6.857 6.857 0 0 1-.823-.042c-.06 0-.12.038-.18.04a2.719 2.719 0 0 0-.6.044 2.676 2.676 0 0 0-.355.054c-.11.046-.227.048-.335.1a1.187 1.187 0 0 1-.315.095c-.117.02-.208.113-.33.112-.375.2-.76.385-1.114.624a10.808 10.808 0 0 0-.862.694 3.97 3.97 0 0 0-.337.364c-.225.242-.423.5-.623.762a7.8 7.8 0 0 0-.576.914 5.486 5.486 0 0 0-.36.758c-.068.178-.152.35-.219.529-.059.16-.105.325-.155.489s-.075.326-.123.482-.075.337-.116.5c-.064.264-.073.54-.135.807a1.547 1.547 0 0 0 0 .375c0 .122-.063.232-.049.359a3.939 3.939 0 0 1 0 .442 4.207 4.207 0 0 0 .038.779 4.1 4.1 0 0 1 .04.49c.028.224.064.447.094.671a1.908 1.908 0 0 1 .094.56l.013.016c.07.214.136.43.209.643.095.278.175.563.3.829a9.728 9.728 0 0 0 .679 1.289A8.428 8.428 0 0 0 90.049 50a9.861 9.861 0 0 0 .81.766 1.741 1.741 0 0 0 .245.2 6.414 6.414 0 0 0 1.087.631c.089.031.167.095.256.129a1.188 1.188 0 0 0 .293.1c.087.011.169.094.274.08a1.342 1.342 0 0 0 .5.138c.1.028.21.005.288.046a.575.575 0 0 0 .274.034c.1 0 .186.068.292.05a1.571 1.571 0 0 1 .265 0 7.434 7.434 0 0 0 .778-.044h.022c.088-.085.208-.017.306-.062a2.085 2.085 0 0 1 .323-.079 6.765 6.765 0 0 0 .999-.361c.185-.087.369-.179.547-.282a5.433 5.433 0 0 0 .5-.328c.172-.126.334-.267.5-.405.072-.062.136-.135.2-.2a1.029 1.029 0 0 1 .192-.18c.085-.048.109-.138.179-.2a3.946 3.946 0 0 0 .666-.809 5.511 5.511 0 0 0 .57-.956 7.879 7.879 0 0 0 .347-.741c.051-.155.13-.3.184-.455.071-.207.135-.417.194-.628a2.407 2.407 0 0 0 .136-.63 1.39 1.39 0 0 0 .122-.522c.045-.227.059-.461.093-.693a2.291 2.291 0 0 0 0-.464c-.008-.15.082-.298.048-.458zm-.267.562c0 .1-.059.186-.047.292a.383.383 0 0 1-.039.293c-.011.014 0 .043 0 .065 0 .089.031.195-.007.262-.054.095.006.205-.044.268s.008.182-.081.235c.031.261-.155.483-.133.742a2.375 2.375 0 0 0-.152.424c-.105.3-.226.6-.355.894a9.219 9.219 0 0 1-.58 1.067 5.84 5.84 0 0 1-.568.782c-.055.064-.1.136-.158.2s-.12.111-.17.175a.845.845 0 0 1-.147.174 5.316 5.316 0 0 0-.4.366 8.703 8.703 0 0 1-.417.328 2.305 2.305 0 0 1-.433.292c-.17.073-.3.233-.5.242a4.218 4.218 0 0 1-.744.342c-.079.042-.187-.016-.265.056-.015.014-.034.025-.062.046a1.509 1.509 0 0 0-.465.072.172.172 0 0 1-.06.014c-.146-.028-.279.054-.425.047s-.295 0-.443 0-.281.007-.421 0a1.6 1.6 0 0 1-.431-.08c-.087-.031-.191.038-.268-.047-.158.041-.283-.072-.424-.1a2.538 2.538 0 0 1-.4-.147 5.793 5.793 0 0 1-.594-.278 7.072 7.072 0 0 1-.72-.454 6.755 6.755 0 0 1-1.006-.881 8.125 8.125 0 0 1-.524-.644c-.148-.2-.276-.4-.417-.6a6.292 6.292 0 0 1-.463-.893c-.075-.168-.164-.331-.224-.505-.072-.207-.162-.405-.221-.618-.045-.164-.1-.326-.142-.494a2.619 2.619 0 0 1-.118-.55.54.54 0 0 0-.043-.159c-.043-.124-.012-.265-.053-.377-.063-.174.017-.358-.077-.522-.019-.033 0-.087 0-.131 0-.4.012-.8 0-1.2a5.685 5.685 0 0 1 .058-.889 1.5 1.5 0 0 1 .119-.59.318.318 0 0 0 0-.153.281.281 0 0 1 .044-.182.177.177 0 0 0 .043-.092 1.5 1.5 0 0 1 .084-.386c.047-.231.138-.446.206-.669a6.6 6.6 0 0 1 .329-.794c.094-.206.211-.4.309-.6s.239-.389.356-.583a4 4 0 0 1 .307-.424 6.673 6.673 0 0 1 1.53-1.462 7.354 7.354 0 0 1 .818-.49 3.771 3.771 0 0 1 1.1-.386c.144-.1.327-.054.477-.132h.022c.193-.015.386-.035.58-.043a2.915 2.915 0 0 1 .574.005c.15.025.3.012.446.044a2.491 2.491 0 0 1 .344.075.5.5 0 0 0 .267.054c.109-.019.191.069.291.1a4.293 4.293 0 0 1 .955.417 8.473 8.473 0 0 1 .787.509 7.52 7.52 0 0 1 1.05.981 6.707 6.707 0 0 1 .684.91c.128.2.235.4.353.606a7.061 7.061 0 0 1 .315.667 1.733 1.733 0 0 1 .15.335c.024.118.078.22.112.332a2 2 0 0 1 .123.345 3.59 3.59 0 0 1 .141.652c.094.137.053.313.129.456.015.029 0 .072 0 .109a.588.588 0 0 0 .04.271c.036.072-.032.174.048.246.007.006 0 .028 0 .043-.032.291.053.576.046.867s.007.568.005.856zm4.777-5.226a1.048 1.048 0 0 0 .036.278c.038.1-.036.208.058.286a1.329 1.329 0 0 0 .046.357 4.7 4.7 0 0 1 .092.6.706.706 0 0 0 .068.185l-.2-.1-.194-.1-.063-.032-.21-.108-.143-.076-.112-.061-.037-.02q-.148-.08-.3-.156l-.155-.063a.219.219 0 0 0-.233 0c-.254.133-.52.244-.764.4l-.056.034-.05.027h-.006l-.052.027-.068.033-.1.048-.1.047-.111.052a.133.133 0 0 0-.031.021l-.011.009-.046.036c.013-.088.019-.168.029-.242q.006-.049.014-.094v-.038c0-.012.006-.024.009-.036l.012-.039a1.284 1.284 0 0 0 .029-.187c.013-.06.033-.12.043-.181.018-.1.03-.209.045-.313a1.13 1.13 0 0 1 .05-.311c0-.01.008-.019.011-.028a.306.306 0 0 0 .017-.073.161.161 0 0 0 0-.022.147.147 0 0 0 0-.022v-.066a.544.544 0 0 1 0-.061l-.095-.087c-.062-.056-.122-.11-.18-.165l-.086-.082-.1-.1-.209-.208-.315-.316-.107-.107-.108-.108.839-.126.209-.031.629-.094.764-1.529c.076.135.139.267.2.4l.044.1c.043.1.084.191.128.285.117.254.254.5.384.754l1.681.243c-.359.427-.8.758-1.2 1.172zm-19.155-1.172a.523.523 0 0 1-.109.161l-.033.032-.1.091-.036.036a1.647 1.647 0 0 1-.074.07c-.077.068-.159.129-.234.2s-.143.139-.212.21l-.07.071-.074.075-.113.113-.059.059-.06.06c.042.56.178 1.114.268 1.694l-.027-.009a.508.508 0 0 1-.079-.028l-.013-.007c-.058-.037-.117-.071-.177-.1s-.121-.064-.183-.095l-.092-.046-.184-.092-.09-.048a2.663 2.663 0 0 0-.2-.1l-.083-.043a3.597 3.597 0 0 1-.244-.134l-.04-.021a.321.321 0 0 0-.039-.014.28.28 0 0 0-.039-.009.236.236 0 0 0-.055 0h-.011a.162.162 0 0 0-.035.006l-.03.01-.016.007a.278.278 0 0 0-.05.013 4.585 4.585 0 0 1-.6.318c-.194.1-.385.209-.579.311l-.028.013c-.026.01-.056.018-.1.032l-.028.01.282-1.637-1.207-1.203c.146-.021.278-.038.409-.059.076-.012.15-.032.225-.043h.116l.03-.006a.166.166 0 0 0 .034-.01l.026-.011.013-.005h.149a.147.147 0 0 0 .076-.01l.018-.008.035-.011.035-.006h.154a.183.183 0 0 0 .034-.006l.023-.006.013-.006a.273.273 0 0 1 .074-.024H83.667a.344.344 0 0 0 .052-.008l.741-1.511a.931.931 0 0 1 .071.1q.334.658.665 1.317c.015.031.035.06.049.085zm9.233-4.281c.03.044.006.125.006.21a.663.663 0 0 1-.072-.02.845.845 0 0 1-.13-.057l-.061-.034a1.92 1.92 0 0 0-.243-.13 5 5 0 0 1-.505-.275c-.162-.087-.328-.168-.486-.248a65.45 65.45 0 0 1-1.478.781v-.009a.223.223 0 0 0 0-.024 1.668 1.668 0 0 0 0-.2.271.271 0 0 1 0-.036v-.024l.005-.016a.205.205 0 0 1 .016-.034c.052-.086-.012-.192.053-.29.045-.068-.026-.185.051-.265.036-.26.071-.52.1-.771l-.1-.1-.1-.1-.2-.2-.131-.129-.075-.073c-.147-.144-.3-.285-.448-.426l-.15-.141.065-.022.048-.014.068-.017.069-.014.1-.018.109-.014.127-.014c.077-.009.154-.017.23-.028l.093-.014.093-.016.056-.01.067-.012.124-.02.084-.012.1-.01h.248l.741-1.519.022.015a.279.279 0 0 1 .041.028l.005.005a.049.049 0 0 1 .01.015c.057.146.142.278.2.426.078.2.191.393.287.589l.052.105.1.21.05.1.417.059.209.03.423.06.431.061.22.031-1.219 1.2c.007.031-.005.072 0 .118a.157.157 0 0 0 .036.084c.039.048-.011.134.032.207.053.089.013.2.054.308a1.774 1.774 0 0 1 .053.4.38.38 0 0 0 .008.04c0 .013.008.026.012.039a.679.679 0 0 1 .022.079c.035.047.022.099.061.156zm-2.954.2l-.014.017-.006.008-.01.012-.014-.014.017-.015.009-.007.008-.007.009.009zm6.418 22.8l-.045-.044zm.354.354l-.044-.044zm.31.221l-.044-.044zm2.265 2.879l-.139.133zm.57-2.258l-.044.044zm-2.79 1.107l-.044-.044zm.31.8l-.044.044zm0-.621l-.045-.039zm.354.443zm2.343-5.72l-.124.071zm-.1 3.8a.112.112 0 0 1-.03.02.119.119 0 0 0 .031-.018zm.293-.167zm.474-.079l-.014.021.014-.021zm-1.007-2.543l-.063.017zm-1.194.59a.472.472 0 0 0-.1.049.448.448 0 0 1 .101-.047zm-3.732-1.234l.044.044zm-13.2-1.284c-.034-.007-.085.022-.089-.044.036.006.087-.023.091.044zm-.221 3.587l-.044.044zm.044-.044l-.044.044zm.044-.044l-.044.044zm2.126 2.613l.044-.044zm3.9-6.156l-.044.044zM86.791 59l.044-.044zm-.044.044l.044-.044zm-2.3-2.7l.044-.044zm.221 2.7l-.044.044zm-.18-2.744l.044-.044zm.133 2.79l-.044.044zm1.063 0l.044.044zm3.322 0l.044.044zm-5-1.816l.044.044zm1.727 1.86l.044.044zm.93.044l.044-.044zm-1.063.044l-.044-.044zm.177-.044l.044.044zm.044.044l.044.044zM84.4 56.388l.044-.044zm.974 2.879l-.044.044zm.354.044l-.044-.044zm.133-.044l.044.044zm4.695.044l.044-.044zM83.823 57.5l-.044-.044zm2.077 1.811l.044.044zm.044.044l.044.044zm3.277.044l.044.044zm-2.834.133l.044-.044zm-1.329-2.392l.044-.044zm-1.107 1.2l-.044-.044zm2.17 1.683l.044.044zm.93 0l-.044.044zm-.044.044l-.044.044zm-.886.133l-.044-.044zm.044.044l-.044-.044zm-2.082-1.772l-.044-.044zm.044.044l-.044-.044zm.044.044l-.044-.044zm.384 8.7a.36.36 0 0 0 .276.006.362.362 0 0 1-.269-.013zm.115.823l-.026-.012.026.012h.013zm-.4-.844h.18zm.039-.375zm-5.5-2.33l.053-.024zm-.14-.037l.022.01zm15.24 5.5l.125.018zm12.116-3.447l.083.339c-.017-.121-.044-.233-.071-.348zm.463 1.629l.06-.014-.06.015-.021-.009zm.2-.05l.076-.019zm-11.553.556l.039-.034-.039.034zm.221 1.265c.027.009.054.015.081.021a.718.718 0 0 1-.065-.03zm.059-1.506l-.063.054.063-.055zm.455.839l.056-.01a.423.423 0 0 1-.056.011.973.973 0 0 1-.148 0 .97.97 0 0 0 .163-.01zm.181-.613l.068-.026-.068.027-.034-.034zm.092-.407a.709.709 0 0 0-.052-.049.549.549 0 0 1 .067.04zm-8-.828c0-.03.007-.06.011-.09l-.006.055V67.474zm.087 1.266l.078.014zm.175-.536l.035-.023-.035.024zm.3-.2l.04-.028zm.347.763l.044.111zm20.424-3.086h.012-.012l-.024-.007zm.723-.175c-.065.039-.128.081-.194.116a4.21 4.21 0 0 0 .205-.126zm-.114-.61l-.034-.007.034.006zm-30.816.8l.086.073-.086-.072zm.232 1.239l.026-.026-.026.026-.122-.1zm.128-2.231l-.076.089zm.457 1.419l.051-.051zm3.071 1.974a.508.508 0 0 0 .059-.054.468.468 0 0 1-.047.042zm7.322.377l.063.015zm18-2.129l.051.335c-.009-.121-.03-.232-.043-.346zm.513.2c-.019.01-.038.019-.056.03L109 66.5zm-5.047.955h.01zm.21-.043h-.017.017zm-5.835.86l.128-.038zm-16.864-1.662l-.012.01a.089.089 0 0 0 .015-.013zm-.6-.114l.081.035zm19.844.998a.226.226 0 0 1 .012.023.222.222 0 0 0-.012-.023.052.052 0 0 1-.006-.016.05.05 0 0 0 .006.016zm.132 1.108a.665.665 0 0 1 0 .1.748.748 0 0 0 0-.108zm.346.092a.545.545 0 0 1-.153.007.563.563 0 0 0 .153-.007zm.347-.044a.936.936 0 0 1-.256 0h-.007.007a.958.958 0 0 0 .256-.005zm.344-.04zm-15.389-.093l.016.009-.016-.008zm15.948-1.483c.008.111.008.222.018.335-.011-.112-.011-.223-.018-.335zm.485 1.461l-.021.014zm-3.013-.023c0 .017.006.034.01.051 0-.016-.007-.034-.011-.051a11.616 11.616 0 0 1-.051-.269l.052.269zm.125.408L100 68.9zm-9.579-24.412l-.031.006.031-.005.069-.009zm.1-.012c.023 0 .046 0 .069-.009zm-.246-3.719l.82.547zm.52 2.4c-.084-.007-.156-.059-.248-.047a.373.373 0 0 1-.088 0 .346.346 0 0 0 .088 0c.091-.012.164.04.248.047l.285.026zm.166 1.232h-.016.016l.026-.008zm.43-.522h.023zm.072-2.986l.062.057-.062-.057zm.568 4.757zm.13-4.151l.005.007zm1.776 6.46l-.006.018.006-.018v-.007zm.011-.167a1.066 1.066 0 0 1 0 .123.871.871 0 0 0-.004-.121zm.305-11.047c0 .055 0 .11.006.166-.005-.054-.006-.109-.01-.164zm.034 12.754v.147c-.004-.047-.005-.096-.004-.145zm.025-11.731V37.764zm-.039 9.129zm.733.279c.01.1.018.208.025.311-.011-.102-.019-.207-.029-.31zm.046.623l-.021-.311.021.312zm.26 2.473l.028-.012-.028.011zm.279-.226a.442.442 0 0 1 .036-.029.453.453 0 0 0-.04.03zm.2-3.379l-.038.016.038-.015.065-.029zm.606-5.694a1.91 1.91 0 0 0 .078-.1c-.033.034-.059.068-.086.1zm1.46 2.242h.068zm-.086 1.117A.512.512 0 0 1 98 44.3a.5.5 0 0 0-.212.007zm.238-1.12a.417.417 0 0 1 .058.005.3.3 0 0 0-.067-.004zm.1.669c-.08-.007-.162 0-.259 0 .1 0 .178-.006.259 0a.628.628 0 0 1 .062.009zm.267-3.52l-.02.012a.109.109 0 0 1 .02-.012l.021-.011zm-.11 2.808c.076-.007.15 0 .226-.008-.081.012-.155.001-.23.009zm.318-.035l-.023.01.023-.009.018-.007zm-.147 4.863zm-.286-6.686l.835-.556zm.958 3.233h-.014.014l.038.008zm.075.018l.112.032c-.043-.009-.08-.021-.121-.03zm.709-.551l-.14-.01.14.011.112.007zm.147-1.076l-.038.01.038-.009zm.017 1.433l-.037.038.038-.038zm.17-.335l.11.007zM85.24 57.672h.291l.056-.07c-.056-.09-.165-.092-.253-.124l-.013-.065-.109-.012a1.575 1.575 0 0 0 .073-.438c.124.032.234-.049.354-.044a.243.243 0 0 1-.016.081c-.039.064-.085.124-.138.2l.119.069.3-.122c.023.114-.091.223-.015.358l.328-.188-.043.3h.162l.249-.261c.089.114-.032.2-.021.3a1.556 1.556 0 0 0-.458.28.334.334 0 0 0-.106.264c-.008.1 0 .206 0 .31l-.1.09c-.036 0-.089-.015-.106 0-.076.079-.16.023-.254.049a.593.593 0 0 0 .041-.39c0-.037-.051-.07-.079-.105a.273.273 0 0 0-.27-.021.461.461 0 0 1-.129.016v-.083c.066 0 .038-.055.044-.089.034-.007.085.022.089-.044h.264l.069-.133h-.106c-.019-.015-.036-.041-.056-.042-.07-.005-.14 0-.217 0zm-.247 10.252a2.348 2.348 0 0 1-.2.132l-.021.01-.021.008h-.006a.125.125 0 0 1-.053.007h-.015a.682.682 0 0 0-.33-.04.644.644 0 0 1-.11-.008l-.054-.057.056-.417a1.593 1.593 0 0 1 .686.088l.068.277zm-.029-1v.265a.609.609 0 0 1-.127.067.36.36 0 0 1-.276-.006l-.02-.007h-.021a.184.184 0 0 0-.029 0h-.213l-.005-.017v-.041a.3.3 0 0 1 0-.031v-.036l.005-.028.007-.029.011-.037a.671.671 0 0 0 .024-.1V66.87a.158.158 0 0 0 0-.027v-.019l.093.005h.088l.084.007a.824.824 0 0 1 .082.013.846.846 0 0 1 .308.084zm-5.917-2.652l-.007.017-.012.031-.024.056L79 64.4a.2.2 0 0 1-.015.026l-.011.014a.066.066 0 0 1-.012.013l-.013.012-.011.008-.012.008-.013.008-.036.019-.053.024-.033.014-.042-.02-.065-.03a2.565 2.565 0 0 1-.332-.496l.269-.209h.134zm11.927 4.271l-.261-.068-.076-.019-.083-.021-.063-.015.043-.073c.024-.043.049-.085.074-.126l.026-.042.033-.051.017-.025.018-.025.036-.049.034-.042.031-.036a1.17 1.17 0 0 1 .085-.086 1.026 1.026 0 0 1 .022.123c0 .088-.006.178 0 .265a2.945 2.945 0 0 0 .063.294zM109 66.5l-.056.029c-.05.029-.1.061-.145.091l-.04.024-.019.01h-.005a.35.35 0 0 1-.048.023l-.022.009a.354.354 0 0 1-.071.02l-.042.006-.013-.083-.051-.335-.041-.267.159.134.256.217.138.122zm-4.581.636l-.008.026-.013.041-.028.085-.018.054a.5.5 0 0 0-.053.027l-.018.01-.023.012-.022.01-.014.005h-.028a.066.066 0 0 1-.025 0h-.023c-.092-.009-.184.064-.276.055h-.019a.165.165 0 0 1-.077-.044l-.016-.017v-.458h.525zm-5.527.671l-.045.314-.133.039-.259.076-.128.038-.115-.476.035-.012.052-.018.021-.007.055-.019.046-.016.039-.012.038-.01.053-.011.05-.006h.165l.12.121zM81.52 66.278v.215l-.06.12a.089.089 0 0 1-.015.013l-.012.007-.013.007h-.01l-.015.005-.021.006h-.022a.3.3 0 0 1-.044 0H81.227l-.027-.001a.294.294 0 0 1-.046-.017l-.142-.062-.076-.033-.081-.035a.172.172 0 0 1-.006-.095l.005-.021.007-.019.011-.025a.268.268 0 0 1 .013-.025l.017-.031a1.011 1.011 0 0 0 .057-.106l.007-.019a.192.192 0 0 0 .008-.024V66.091a.214.214 0 0 0 0-.045.579.579 0 0 1 .3.074.75.75 0 0 1 .061.036c.073.037.129.081.185.122zm19.189-22.613l-.351.351-.11-.007-.222-.014-.112-.007-.14-.011-.139-.012-.093-.008c-.062-.005-.124-.011-.186-.014a2.7 2.7 0 0 0-.353 0 .528.528 0 0 0-.068-.022l-.041-.01-.037-.006h-.094c-.128-.005-.257.011-.384 0a1.453 1.453 0 0 1-.151-.026l-.035-.007a.616.616 0 0 0-.062-.009c-.081-.007-.162 0-.259 0 0 .068-.006.137-.01.21.048 0 .1.008.144.011a2.455 2.455 0 0 1 .416.05c.121.03.245.012.358.044s.23.014.336.044a3.353 3.353 0 0 1 .356.047.645.645 0 0 0 .244.023h.065l.018.006h.007l.016.006.017.006.034.009a.582.582 0 0 0 .067.01h.135l-.038.038-.268.268-.077-.011-.13-.018a2.303 2.303 0 0 1-.137-.023l-.056-.013-.056-.015-.112-.032-.037-.01-.038-.008H98.932l-.042-.005a.285.285 0 0 1-.1-.03l-.019-.009a.348.348 0 0 0-.119-.018H98.563l-.018-.006-.013-.006-.013-.007-.012-.009-.015-.015a.532.532 0 0 1-.162-.005l-.066-.013h-.01l-.054-.032c-.055-.015-.11-.031-.165-.043a.537.537 0 0 0-.25 0l-.029.129-.01.039-.018.063c-.007.021-.017.059-.027.088v.012l-.029.086-.016.043-.032.082c-.011.027-.022.055-.035.082l-.02.045-.038.079-.04.078-.029.054c-.018.034-.038.068-.058.1s-.054.089-.084.133c.559.387 1.133.752 1.694 1.14v.432l-1.82-1.392-.114.163.026.02a2.164 2.164 0 0 1 .175.175l.043.041.028.023.028.019.028.017a.277.277 0 0 0 .042.02l.009.005.023.025c.182.167.362.335.546.5.09.081.186.156.278.235l.031.029.015.015.015.015.06.062.015.015a.4.4 0 0 0 .032.029.441.441 0 0 0 .048.034h.014a.206.206 0 0 0 .031.015l.014.007a.123.123 0 0 1 .024.021l.023.026.022.026.012.012.071.065.072.067.156.143v.481l-.06.06h-.447c-.2-.217-.412-.428-.6-.656s-.4-.438-.575-.67a3.493 3.493 0 0 1-.414-.491l-.008-.014a.236.236 0 0 0-.019-.028c-.017-.023-.037-.046-.057-.075l-.175.155 1.026 1.339.343.447a.166.166 0 0 1-.045.027l-.019.006h-.018a.433.433 0 0 1-.087 0 .229.229 0 0 0-.033 0h-.2c-.193-.283-.389-.562-.576-.848s-.363-.575-.562-.834l-.438.219-.059.028-.064.03-.065.029-.038.015a1.082 1.082 0 0 1-.095.035l-.051.016h-.013l-.046.014-.085.023c-.1.027-.2.051-.309.077-.02.141.07.274.045.416.094.1-.011.244.086.341a4.756 4.756 0 0 0 .1.715 2.191 2.191 0 0 0 .123.632c-.031.132.044.252.046.381a.267.267 0 0 0 0 .036c0 .011 0 .023.005.035v.025l.011.049.006.024.006.024.005.028a.3.3 0 0 1 0 .053v.079a.145.145 0 0 0 0 .021v.031a.13.13 0 0 0 .011.025v.007l.009.014a.077.077 0 0 1 .008.016l.005.018v.019a.345.345 0 0 1 0 .057l-.006.072a.369.369 0 0 0 0 .041.45.45 0 0 0-.036.029l-.033.033-.033.035-.017.018-.017.018-.018.018-.019.018a.405.405 0 0 1-.041.033.411.411 0 0 1-.1.054c.038-.23-.061-.426-.043-.638a1.325 1.325 0 0 0-.04-.292c-.013-.09.032-.19-.044-.27v-.022c-.015-.208-.027-.416-.045-.623-.009-.1-.026-.2-.044-.292s.046-.205-.042-.293c-.007-.007 0-.025 0-.039l-.021-.312a11.8 11.8 0 0 0-.025-.311 2.7 2.7 0 0 0-.054-.277h-.15c0 .008-.018.029-.014.045s.011.044.014.067l.006.034v.034c0 .029.006.059.008.088V47.574c0 .032 0 .064.005.1v.047c0 .015 0 .032.006.047a3.93 3.93 0 0 1 .021.553v.084a1.324 1.324 0 0 0 .019.165l.013.082c.004.027 0 .044.006.065s0 .04 0 .061v.314a1.778 1.778 0 0 0 .02.3c.047.276.015.551.044.824a1.414 1.414 0 0 1 .035.329l-.073.074-.225.227-.046.046a.512.512 0 0 1-.12-.064c-.1-.09-.189-.186-.285-.282a2.444 2.444 0 0 1 .006-.483 2.137 2.137 0 0 0 .027-.459v-.185c0-.05 0-.1.009-.15 0-.024.006-.049.01-.074.043-.255 0-.509.042-.757 0-.018.005-.036.008-.054s.006-.053.008-.079v-.04-.046-.078-.045-.188-.108-.058c0-.019 0-.043.006-.065v-.064l.005-.034v-.028c0-.026.006-.051.009-.076s0-.062.006-.092v-.046-.215-.079-.079c0-.026 0-.06.005-.09h-.162a.088.088 0 0 0-.017.031 1.08 1.08 0 0 0-.005.15 1.052 1.052 0 0 1-.005.147.462.462 0 0 1-.027.109c-.047.121.028.273-.051.4v.022c-.014.222-.027.446-.045.668-.007.09-.03.179-.043.269s.031.189-.044.27v.022a2.614 2.614 0 0 1-.05.579c-.01.186-.046.37-.043.558a.5.5 0 0 1-.056.164l-.294-.294c.031-.178.058-.375.1-.566a5.911 5.911 0 0 1 .12-.679 2.349 2.349 0 0 0 .05-.4c0-.012 0-.024.006-.036l.006-.027v-.013c0-.017.008-.034.012-.051l.011-.051v-.026l.007-.053v-.026a.212.212 0 0 1 0-.026l.006-.026v-.008a.236.236 0 0 1 .008-.026l.006-.018v-.007a.2.2 0 0 0 .009-.037 1.061 1.061 0 0 0 0-.123v-.052a.239.239 0 0 1 .009-.038l.006-.013a.136.136 0 0 1 .01-.019l.011-.015c-.01-.265.117-.515.085-.783l-.046-.046-.08-.014-.08-.017-.051-.012h-.005l-.04-.01h-.013l-.044-.012-.056-.017-.053-.016c-.034-.011-.068-.022-.1-.035l-.1-.038-.1-.042a2.741 2.741 0 0 1-.123-.057l-.072-.036c-.1-.049-.189-.1-.282-.159-.4.568-.748 1.154-1.143 1.684h-.426l1.353-1.758a.123.123 0 0 0 0-.023v-.044a.125.125 0 0 0-.022-.034l-.017-.018-.022-.021a.446.446 0 0 1-.042-.043l-.061.061-.02.021-.068.07-.025.027c-.049.052-.1.1-.144.159l-.07.081-.069.082-.05.062c-.04.049-.079.1-.118.15l-.024.028c-.025.028-.053.052-.08.078l-.035.036c-.092.1-.189.2-.279.3-.036.04-.071.081-.1.124l-.049.064c-.073.1-.162.182-.24.276s-.153.188-.233.288h-.514V47.4l.041-.03c.028-.021.055-.042.081-.065l.079-.07.039-.036.079-.073a2.863 2.863 0 0 1 .419-.285l.012-.009.012-.01a.208.208 0 0 0 .02-.018l.02-.021.039-.043.018-.018.018-.017.119-.112.089-.085.09-.083c.04-.036.082-.071.124-.1l.065-.048.049-.038.046-.039.045-.041.044-.041.035-.033.036-.032.037-.031.214-.172.074-.059-.076-.155h-.078L90.3 46.968v-.43l.1-.069.3-.21.161-.11.147-.1.037-.024.067-.044.315-.2.131-.086.131-.088.13-.09c.044-.03.087-.061.13-.093-.076-.136-.144-.247-.2-.363a3.38 3.38 0 0 1-.165-.374c-.043-.122-.068-.252-.1-.383a.9.9 0 0 0-.126 0h-.118l-.047.009-.055.012-.1.028-.052.016h-.016l-.033.006h-.038a.936.936 0 0 0-.114.011l-.022.005a.266.266 0 0 0-.046.017.192.192 0 0 1-.03.012.3.3 0 0 1-.038.011h-.026c-.022 0-.046.006-.069.009h-.035l-.069.009-.031.005-.093.018-.062.011-.062.009a2.559 2.559 0 0 0-.268.055c-.15.032-.3.054-.45.095a.879.879 0 0 0-.07-.076l-.074-.07a.944.944 0 0 1-.053-.056l-.02-.025-.014-.02-.014-.021a.419.419 0 0 1-.025-.046c.161-.019.307-.043.454-.052.086-.005.154-.064.248-.051.072.011.161.038.226-.039.006-.007.028 0 .043 0l.513-.045c.084-.007.157-.058.247-.046a.448.448 0 0 0 .228-.035.312.312 0 0 1 .137-.014c.034 0 .068.005.1.006h.026v-.223h-.023a.819.819 0 0 1-.108 0h-.184l-.051.006a.358.358 0 0 0-.047.011l-.021.006a.322.322 0 0 0-.041.016.23.23 0 0 1-.114.013l-.07-.006h-.035c-.335-.011-.665.078-1 .045a1.537 1.537 0 0 1-.535.045 1.71 1.71 0 0 0-.167.028l-.043.009-.028.005-.4-.4c.1-.122.229-.227.335-.348h.452l.093.007.188.019h.05l.093.009c.047 0 .094.007.141.008h.198a39.847 39.847 0 0 0 1.247.088.57.57 0 0 0 .064-.006c.011-.076.028-.147-.054-.208l-.278-.026-.285-.026c-.084-.007-.157-.06-.248-.047a.346.346 0 0 1-.088 0h-.035l-.034-.007-.071-.02-.024-.006h-.024l-.044-.006h-.135l-.057-.006a.5.5 0 0 1-.074-.015l-.04-.009h-.028L89.9 43H89.759a.531.531 0 0 1-.113-.02l-.037-.009H89.432a.326.326 0 0 1-.05-.01l-.017-.005h-.012l-.019-.009c-.028-.014-.068 0-.122 0 .055-.151.182-.21.261-.319l1.244.25.755.152c.046-.144.1-.3.146-.453a1.978 1.978 0 0 1 .292-.61.077.077 0 0 0 .011-.022.2.2 0 0 0 .005-.027c0-.019 0-.039.008-.059l-.818-.546-.82-.547v-.436c.6.441 1.173.9 1.748 1.331a.26.26 0 0 0 .067 0h.013a.086.086 0 0 0 .021-.009.107.107 0 0 0 .049-.108c0-.011 0-.024-.007-.034l-.005-.007c-.086-.075-.174-.147-.263-.22l-.029-.027-.056-.058-.019-.02-.016-.016-.017-.016-.02-.018-.02-.015-.022-.015-.017-.01-.029-.013c-.051-.019-.084-.081-.127-.121l-.062-.057-.185-.197q-.061-.058-.125-.113a4.628 4.628 0 0 0-.129-.109l-.185-.15-.128-.107-.058-.05-.058-.051-.057-.052a4.302 4.302 0 0 1-.121-.114l-.021-.021-.084-.084v-.5h.557a.271.271 0 0 0 .038.073c.176.194.355.384.531.578.077.085.147.175.22.263s.153.169.225.259c.194.242.416.46.653.715l.1-.127a1.076 1.076 0 0 0-.093-.184c-.211-.276-.428-.546-.64-.821s-.409-.539-.613-.809v-.044c.12-.008.242 0 .388 0 .388.545.749 1.123 1.137 1.688h.042a.117.117 0 0 0 .062-.015c.024-.018.049-.036.074-.052l.052-.034.037-.022.018-.011.019-.01.037-.02.038-.019.051-.024.034-.016.034-.015.069-.029c.058-.023.117-.045.176-.065l.044-.015.1-.034.127-.039.065-.02h.179a1.642 1.642 0 0 0-.075-.634 2.747 2.747 0 0 0-.044-.292 1.834 1.834 0 0 1-.054-.421c-.009-.068-.031-.135-.043-.2a.7.7 0 0 0-.037-.207c-.038-.082.01-.2-.052-.288.006-.243-.1-.472-.092-.716 0-.074-.051-.142-.045-.225a.643.643 0 0 0-.037-.185l.3-.3a1.829 1.829 0 0 1 .056.422 1.91 1.91 0 0 0 .04.292c.01.091-.022.188.045.27v.022c.014.208.027.416.045.624.009.1.028.194.043.292s-.036.2.044.292c.007.009 0 .029 0 .044a4.918 4.918 0 0 0 .05.622 3.139 3.139 0 0 1 .04.505l.152.051c.012-.028.023-.04.023-.053a2.7 2.7 0 0 0 0-.487c-.053-.3 0-.6-.048-.889-.041-.262 0-.525-.042-.779a1.637 1.637 0 0 1-.023-.238v-.086-.18-.087-.066-.066c0-.042-.007-.083-.014-.124a1.802 1.802 0 0 1-.021-.2v-.064c0-.086-.005-.172-.007-.256 0-.056 0-.111-.006-.166l.351-.351h.056l.117.118.124.122a.267.267 0 0 1 .085.292.777.777 0 0 0-.036.339c.006.423-.08.842-.046 1.266a2.374 2.374 0 0 0-.043.712v.052c0 .017 0 .034-.006.051l-.009.051c0 .016-.006.034-.009.05l-.017.1a.685.685 0 0 0 0 .162 3.087 3.087 0 0 1 0 .465v.021a.141.141 0 0 1 0 .021v.017c0 .019-.009.037-.014.056l-.01.033-.011.038c0 .015-.009.031-.013.048l.152.071.008-.008a.255.255 0 0 0 .028-.028v-.007c.026-.17.035-.342.055-.512a1.694 1.694 0 0 1 .043-.4c.067-.173-.021-.36.079-.521.007-.011 0-.029 0-.044.015-.222.028-.446.045-.668a1.343 1.343 0 0 0 .047-.27.286.286 0 0 1 .039-.249c.011-.012 0-.043 0-.065l.054-.662.02.009.028.012.014.006.011.005.018.013.052.049.052.052.107.108c-.018.092.03.2-.029.29s.037.207-.061.285a1.1 1.1 0 0 1-.04.315c-.034.129-.014.273-.053.4l-.014.055-.011.048-.009.048c-.003.016 0 .026-.006.038l-.016.129-.012.107a1.228 1.228 0 0 1-.056.253l-.007.023-.006.024c0 .017-.007.032-.01.049a1.3 1.3 0 0 0-.012.111V39.572c0 .012 0 .052-.008.078s-.006.034-.01.051l-.01.044a.696.696 0 0 0-.01.044.237.237 0 0 0-.006.027q0 .018-.006.037v.093a.188.188 0 0 1-.015.057l-.005.011-.006.012-.007.011v.01a.061.061 0 0 0-.005.022c0 .036.01.082 0 .12-.009.069-.028.136-.047.225.028.021.061.068.1.073a1.719 1.719 0 0 1 .21.042l.09.025.076.024.05.018.124.045.082.032.081.032.071.029.047.02c.108.051.208.126.325.2.027-.032.053-.066.079-.1l.053-.072.04-.055c.03-.043.06-.086.088-.129l.077-.118.16-.25.068-.1c.034-.051.068-.1.1-.153l.1-.153.141-.2.216-.314.428-.064a.989.989 0 0 1-.083.191l-.078.1-.11.138-.126.158a9.656 9.656 0 0 0-.124.159l-.06.082a6.287 6.287 0 0 1-.143.19l-.059.075c-.084.106-.17.211-.251.319a2.715 2.715 0 0 0-.191.277.278.278 0 0 1-.042.051l-.017.016-.037.034-.041.039.153.162c.01-.013.02-.025.031-.036l.05-.048.017-.015.02-.019.028-.027.025-.028.017-.021a.238.238 0 0 0-.009-.043l.006-.013a.223.223 0 0 0 .014-.037c0-.012.021-.021.03-.032.157-.171.316-.34.469-.514.234-.265.455-.541.7-.794a2.775 2.775 0 0 0 .207-.266h.568v.513l-.142.119-.147.125-.033.03-.032.032-.042.043-.038.038-.03.027a.431.431 0 0 1-.076.053l-.021.011a.108.108 0 0 0-.02.012.183.183 0 0 0-.037.031l-.021.023-.021.024-.025.028-.019.019-.179.167-.12.111c-.061.055-.122.109-.185.16l-.214.174-.078.065-.09.077-.059.052a6.544 6.544 0 0 0-.218.208.283.283 0 0 0 0 .056.175.175 0 0 0 .005.026.1.1 0 0 0 .022.04l.011.01a.1.1 0 0 0 .038.018h.059l1.759-1.357v.448l-.835.556-.848.565q.041.063.08.128a3.364 3.364 0 0 1 .144.264l.024.051.012.026.024.054.021.05.019.048.019.047c.017.044.031.088.046.134l.02.068.019.069c.006.023.009.033.012.05l.01.044.015.075a1.855 1.855 0 0 0 .668-.081c.226-.04.451-.087.676-.132s.435-.089.634-.13l.077.077.217.217-.038.009-.039.009-.039.007-.093.014-.061.007-.159.017-.087.01-.173.023c-.144.02-.288.043-.434.058h-.205l-.039.005-.038.008h-.014l-.019.006-.018.007-.023.009-.023.007a.359.359 0 0 1-.045.01c-.077.012-.151 0-.226.008s-.125.062-.2.048a.421.421 0 0 0-.058-.005H97.875v.225c.19-.026.386.043.573-.048h.022c.055.005.111.007.166.007h.273l.063-.006.1-.01.091-.009.1-.008.1-.006h.048l.238-.009.149-.009.13-.008.318-.021.12-.007a.789.789 0 0 0 .069.077l.037.036.063.057c.024.022.047.043.069.066l.02.021.019.021a.239.239 0 0 1 .018.022l.016.022.012.018a.27.27 0 0 1 .015.028.3.3 0 0 1 .004.042z" class="cls-1" data-name="Path 848" transform="translate(38.56 684.961)"></path></g></svg>